<svg version="1.1" xmlns="http://www.w3.org/2000/svg" viewBox="0 0 2236.679869797248 1549.495003647668" width="2236.679869797248" height="1549.495003647668">
  <!-- svg-source:excalidraw -->
  
  <defs>
    <style class="style-fonts">
      @font-face {
        font-family: "Virgil";
        src: url("https://excalidraw.com/Virgil.woff2");
      }
      @font-face {
        font-family: "Cascadia";
        src: url("https://excalidraw.com/Cascadia.woff2");
      }
      @font-face {
        font-family: "Assistant";
        src: url("https://excalidraw.com/Assistant-Regular.woff2");
      }
    </style>
    
  </defs>
  <g transform="translate(16.279172052510376 758.7810209902663) rotate(0 647.1458129882812 390.35699132870093)"><text x="0" y="17.649172872461524" font-family="Virgil, Segoe UI Emoji" font-size="20.14745761696521px" fill="#1e1e1e" text-anchor="start" style="white-space: pre;" direction="ltr" dominant-baseline="alphabetic">createOrder(sellerId, itemName string, amount int, price Money) orderId</text><text x="0" y="42.83349489366803" font-family="Virgil, Segoe UI Emoji" font-size="20.14745761696521px" fill="#1e1e1e" text-anchor="start" style="white-space: pre;" direction="ltr" dominant-baseline="alphabetic">А: заявка 200 байт - 5 Гб за три года</text><text x="0" y="68.01781691487454" font-family="Virgil, Segoe UI Emoji" font-size="20.14745761696521px" fill="#1e1e1e" text-anchor="start" style="white-space: pre;" direction="ltr" dominant-baseline="alphabetic">Б: заявка 2 Кб - 200 тыс в день (2.3 RPS) - 400 млн байт (Мб) в день  </text><text x="0" y="93.20213893608106" font-family="Virgil, Segoe UI Emoji" font-size="20.14745761696521px" fill="#1e1e1e" text-anchor="start" style="white-space: pre;" direction="ltr" dominant-baseline="alphabetic"></text><text x="0" y="118.38646095728757" font-family="Virgil, Segoe UI Emoji" font-size="20.14745761696521px" fill="#1e1e1e" text-anchor="start" style="white-space: pre;" direction="ltr" dominant-baseline="alphabetic">listOrders(nameFilter string) [](sellerId, orderId, itemName string, amount int, price Money)</text><text x="0" y="143.5707829784941" font-family="Virgil, Segoe UI Emoji" font-size="20.14745761696521px" fill="#1e1e1e" text-anchor="start" style="white-space: pre;" direction="ltr" dominant-baseline="alphabetic">А: 20 000 RPD - 0.23 RPS - 500 заявок - 100 Кб - 23 Кб/с или 180 КБ/с</text><text x="0" y="168.7551049997006" font-family="Virgil, Segoe UI Emoji" font-size="20.14745761696521px" fill="#1e1e1e" text-anchor="start" style="white-space: pre;" direction="ltr" dominant-baseline="alphabetic">Б: 200 000 RPD - 2.3 RPS - 500 заявок - 1 Мб -  </text><text x="0" y="193.9394270209071" font-family="Virgil, Segoe UI Emoji" font-size="20.14745761696521px" fill="#1e1e1e" text-anchor="start" style="white-space: pre;" direction="ltr" dominant-baseline="alphabetic"></text><text x="0" y="219.12374904211362" font-family="Virgil, Segoe UI Emoji" font-size="20.14745761696521px" fill="#1e1e1e" text-anchor="start" style="white-space: pre;" direction="ltr" dominant-baseline="alphabetic">getOrder(orderId) (sellerId, orderId, itemName string, amount int, price Money)</text><text x="0" y="244.30807106332014" font-family="Virgil, Segoe UI Emoji" font-size="20.14745761696521px" fill="#1e1e1e" text-anchor="start" style="white-space: pre;" direction="ltr" dominant-baseline="alphabetic"></text><text x="0" y="269.49239308452667" font-family="Virgil, Segoe UI Emoji" font-size="20.14745761696521px" fill="#1e1e1e" text-anchor="start" style="white-space: pre;" direction="ltr" dominant-baseline="alphabetic"></text><text x="0" y="294.67671510573314" font-family="Virgil, Segoe UI Emoji" font-size="20.14745761696521px" fill="#1e1e1e" text-anchor="start" style="white-space: pre;" direction="ltr" dominant-baseline="alphabetic">buyOrder(buyerId, orderId) orderId - 0.23 RPS, суммарно пишущая нагрузка ~ 1 RPS</text><text x="0" y="319.86103712693966" font-family="Virgil, Segoe UI Emoji" font-size="20.14745761696521px" fill="#1e1e1e" text-anchor="start" style="white-space: pre;" direction="ltr" dominant-baseline="alphabetic"></text><text x="0" y="345.0453591481462" font-family="Virgil, Segoe UI Emoji" font-size="20.14745761696521px" fill="#1e1e1e" text-anchor="start" style="white-space: pre;" direction="ltr" dominant-baseline="alphabetic">listOrders(userId) [](orderId, sellerId, buyerId, orderId)</text><text x="0" y="370.22968116935266" font-family="Virgil, Segoe UI Emoji" font-size="20.14745761696521px" fill="#1e1e1e" text-anchor="start" style="white-space: pre;" direction="ltr" dominant-baseline="alphabetic">А: 8 раз в день или раз в 5 секунд (0.2 RPS) - 2000 RPS на всех</text><text x="0" y="395.4140031905592" font-family="Virgil, Segoe UI Emoji" font-size="20.14745761696521px" fill="#1e1e1e" text-anchor="start" style="white-space: pre;" direction="ltr" dominant-baseline="alphabetic">Б: 20000 RPS (раз в 5 секунд)</text><text x="0" y="420.5983252117657" font-family="Virgil, Segoe UI Emoji" font-size="20.14745761696521px" fill="#1e1e1e" text-anchor="start" style="white-space: pre;" direction="ltr" dominant-baseline="alphabetic"></text><text x="0" y="445.78264723297224" font-family="Virgil, Segoe UI Emoji" font-size="20.14745761696521px" fill="#1e1e1e" text-anchor="start" style="white-space: pre;" direction="ltr" dominant-baseline="alphabetic">getOrder(orderId) (sellerInfo, buyerInfo string)</text><text x="0" y="470.96696925417876" font-family="Virgil, Segoe UI Emoji" font-size="20.14745761696521px" fill="#1e1e1e" text-anchor="start" style="white-space: pre;" direction="ltr" dominant-baseline="alphabetic"></text><text x="0" y="496.15129127538523" font-family="Virgil, Segoe UI Emoji" font-size="20.14745761696521px" fill="#1e1e1e" text-anchor="start" style="white-space: pre;" direction="ltr" dominant-baseline="alphabetic">acceptOrder(sellerId, orderId)</text><text x="0" y="521.3356132965918" font-family="Virgil, Segoe UI Emoji" font-size="20.14745761696521px" fill="#1e1e1e" text-anchor="start" style="white-space: pre;" direction="ltr" dominant-baseline="alphabetic"></text><text x="0" y="546.5199353177983" font-family="Virgil, Segoe UI Emoji" font-size="20.14745761696521px" fill="#1e1e1e" text-anchor="start" style="white-space: pre;" direction="ltr" dominant-baseline="alphabetic">sendItem(sellerId, orderId)</text><text x="0" y="571.7042573390048" font-family="Virgil, Segoe UI Emoji" font-size="20.14745761696521px" fill="#1e1e1e" text-anchor="start" style="white-space: pre;" direction="ltr" dominant-baseline="alphabetic"></text><text x="0" y="596.8885793602113" font-family="Virgil, Segoe UI Emoji" font-size="20.14745761696521px" fill="#1e1e1e" text-anchor="start" style="white-space: pre;" direction="ltr" dominant-baseline="alphabetic">itemReceived(buyerId, orderId)</text><text x="0" y="622.0729013814179" font-family="Virgil, Segoe UI Emoji" font-size="20.14745761696521px" fill="#1e1e1e" text-anchor="start" style="white-space: pre;" direction="ltr" dominant-baseline="alphabetic"></text><text x="0" y="647.2572234026244" font-family="Virgil, Segoe UI Emoji" font-size="20.14745761696521px" fill="#1e1e1e" text-anchor="start" style="white-space: pre;" direction="ltr" dominant-baseline="alphabetic"></text><text x="0" y="672.4415454238309" font-family="Virgil, Segoe UI Emoji" font-size="20.14745761696521px" fill="#1e1e1e" text-anchor="start" style="white-space: pre;" direction="ltr" dominant-baseline="alphabetic">deposit(userId, amount int)</text><text x="0" y="697.6258674450374" font-family="Virgil, Segoe UI Emoji" font-size="20.14745761696521px" fill="#1e1e1e" text-anchor="start" style="white-space: pre;" direction="ltr" dominant-baseline="alphabetic"></text><text x="0" y="722.8101894662439" font-family="Virgil, Segoe UI Emoji" font-size="20.14745761696521px" fill="#1e1e1e" text-anchor="start" style="white-space: pre;" direction="ltr" dominant-baseline="alphabetic">withdraw(userId, amount int)</text><text x="0" y="747.9945114874504" font-family="Virgil, Segoe UI Emoji" font-size="20.14745761696521px" fill="#1e1e1e" text-anchor="start" style="white-space: pre;" direction="ltr" dominant-baseline="alphabetic"></text><text x="0" y="773.1788335086569" font-family="Virgil, Segoe UI Emoji" font-size="20.14745761696521px" fill="#1e1e1e" text-anchor="start" style="white-space: pre;" direction="ltr" dominant-baseline="alphabetic">accountInfo(userId) (amount int, [](timestamp, amount, type)) - 20 байт по 20 000 в день - 400 Кб в день - 500 Мб за 3 года</text></g><g transform="translate(10.120960190991354 10) rotate(0 200.1875 12.5)"><text x="0" y="17.52" font-family="Virgil, Segoe UI Emoji" font-size="20px" fill="#1e1e1e" text-anchor="start" style="white-space: pre;" direction="ltr" dominant-baseline="alphabetic">Сервис peer to peer торговая площадка</text></g><g stroke-linecap="round" transform="translate(10 51.880514910447886) rotate(0 236.5 208)"><path d="M32 0 C128.82 -2.82, 228.48 -1.45, 441 0 M32 0 C178.4 -2.24, 325.38 -1.61, 441 0 M441 0 C464.3 -0.25, 471.56 8.89, 473 32 M441 0 C461.44 -1.33, 472.67 12.52, 473 32 M473 32 C474.89 104.07, 475.11 174.91, 473 384 M473 32 C471.31 148.79, 470.52 264.8, 473 384 M473 384 C473.77 403.61, 460.71 416.12, 441 416 M473 384 C474.92 404.27, 462.92 414.31, 441 416 M441 416 C318.24 415.34, 194.88 416.42, 32 416 M441 416 C296.95 415.62, 151.42 415.23, 32 416 M32 416 C10.07 416.53, 0.02 405.95, 0 384 M32 416 C12.95 415.11, 0.27 405.53, 0 384 M0 384 C-0.45 243.8, 0.83 103.03, 0 32 M0 384 C-1.79 276.98, -1.84 169.52, 0 32 M0 32 C-1.42 9.44, 10.21 -1.9, 32 0 M0 32 C0.64 9.35, 11.38 -2.01, 32 0" stroke="#1e1e1e" stroke-width="2" fill="none"></path></g><g transform="translate(34.90903118962683 96.62629139171705) rotate(0 182.3333282470703 50)"><text x="0" y="17.52" font-family="Virgil, Segoe UI Emoji" font-size="20px" fill="#1e1e1e" text-anchor="start" style="white-space: pre;" direction="ltr" dominant-baseline="alphabetic">1. Кто будет пользоваться площадкой</text><text x="0" y="42.519999999999996" font-family="Virgil, Segoe UI Emoji" font-size="20px" fill="#1e1e1e" text-anchor="start" style="white-space: pre;" direction="ltr" dominant-baseline="alphabetic">2. Перечень возможных обменов</text><text x="0" y="67.52" font-family="Virgil, Segoe UI Emoji" font-size="20px" fill="#1e1e1e" text-anchor="start" style="white-space: pre;" direction="ltr" dominant-baseline="alphabetic">3. Алгоритм обмена товарами</text><text x="0" y="92.52" font-family="Virgil, Segoe UI Emoji" font-size="20px" fill="#1e1e1e" text-anchor="start" style="white-space: pre;" direction="ltr" dominant-baseline="alphabetic">    </text></g><g transform="translate(22.320322590913975 69.16001808543425) rotate(0 163.9375 12.5)"><text x="0" y="17.52" font-family="Virgil, Segoe UI Emoji" font-size="20px" fill="#1e1e1e" text-anchor="start" style="white-space: pre;" direction="ltr" dominant-baseline="alphabetic">Функциональные характеристики:</text></g><g transform="translate(20.031466482056885 237.39094208641714) rotate(0 179.4583282470703 12.5)"><text x="0" y="17.52" font-family="Virgil, Segoe UI Emoji" font-size="20px" fill="#1e1e1e" text-anchor="start" style="white-space: pre;" direction="ltr" dominant-baseline="alphabetic">Не функциональные характеристики:</text></g><g transform="translate(26.475747026341537 276.72378371927084) rotate(0 221.2708282470703 50)"><text x="0" y="17.52" font-family="Virgil, Segoe UI Emoji" font-size="20px" fill="#1e1e1e" text-anchor="start" style="white-space: pre;" direction="ltr" dominant-baseline="alphabetic">1. Сколько пользователей </text><text x="0" y="42.519999999999996" font-family="Virgil, Segoe UI Emoji" font-size="20px" fill="#1e1e1e" text-anchor="start" style="white-space: pre;" direction="ltr" dominant-baseline="alphabetic">2. Как часто выполняют операции</text><text x="0" y="67.52" font-family="Virgil, Segoe UI Emoji" font-size="20px" fill="#1e1e1e" text-anchor="start" style="white-space: pre;" direction="ltr" dominant-baseline="alphabetic">3. Нужна ли история операций и как долго </text><text x="0" y="92.52" font-family="Virgil, Segoe UI Emoji" font-size="20px" fill="#1e1e1e" text-anchor="start" style="white-space: pre;" direction="ltr" dominant-baseline="alphabetic">хранить историю</text></g><g transform="translate(522.435382376149 51.993597269007324) rotate(0 240.83332824707026 37.5)"><text x="0" y="17.52" font-family="Virgil, Segoe UI Emoji" font-size="20px" fill="#1e1e1e" text-anchor="start" style="white-space: pre;" direction="ltr" dominant-baseline="alphabetic">1. Владельцы товаров, Покупатели, Модераторы</text><text x="0" y="42.519999999999996" font-family="Virgil, Segoe UI Emoji" font-size="20px" fill="#1e1e1e" text-anchor="start" style="white-space: pre;" direction="ltr" dominant-baseline="alphabetic">2. Валюты, </text><text x="0" y="67.52" font-family="Virgil, Segoe UI Emoji" font-size="20px" fill="#1e1e1e" text-anchor="start" style="white-space: pre;" direction="ltr" dominant-baseline="alphabetic">3. </text></g><g transform="translate(1312.2127970088388 46.22728839868316) rotate(0 268.9791564941405 312.5)"><text x="0" y="17.52" font-family="Virgil, Segoe UI Emoji" font-size="20px" fill="#1e1e1e" text-anchor="start" style="white-space: pre;" direction="ltr" dominant-baseline="alphabetic">Операции с балансом:</text><text x="0" y="42.519999999999996" font-family="Virgil, Segoe UI Emoji" font-size="20px" fill="#1e1e1e" text-anchor="start" style="white-space: pre;" direction="ltr" dominant-baseline="alphabetic">1. Перечень валют</text><text x="0" y="67.52" font-family="Virgil, Segoe UI Emoji" font-size="20px" fill="#1e1e1e" text-anchor="start" style="white-space: pre;" direction="ltr" dominant-baseline="alphabetic">    1.1 Пополнение</text><text x="0" y="92.52" font-family="Virgil, Segoe UI Emoji" font-size="20px" fill="#1e1e1e" text-anchor="start" style="white-space: pre;" direction="ltr" dominant-baseline="alphabetic">    1.2 Списание</text><text x="0" y="117.52" font-family="Virgil, Segoe UI Emoji" font-size="20px" fill="#1e1e1e" text-anchor="start" style="white-space: pre;" direction="ltr" dominant-baseline="alphabetic">2. Вывод</text><text x="0" y="142.52" font-family="Virgil, Segoe UI Emoji" font-size="20px" fill="#1e1e1e" text-anchor="start" style="white-space: pre;" direction="ltr" dominant-baseline="alphabetic"></text><text x="0" y="167.52" font-family="Virgil, Segoe UI Emoji" font-size="20px" fill="#1e1e1e" text-anchor="start" style="white-space: pre;" direction="ltr" dominant-baseline="alphabetic"></text><text x="0" y="192.52" font-family="Virgil, Segoe UI Emoji" font-size="20px" fill="#1e1e1e" text-anchor="start" style="white-space: pre;" direction="ltr" dominant-baseline="alphabetic">Заявки(Покупатель):</text><text x="0" y="217.52" font-family="Virgil, Segoe UI Emoji" font-size="20px" fill="#1e1e1e" text-anchor="start" style="white-space: pre;" direction="ltr" dominant-baseline="alphabetic">1. Посмотреть список заявок</text><text x="0" y="242.52" font-family="Virgil, Segoe UI Emoji" font-size="20px" fill="#1e1e1e" text-anchor="start" style="white-space: pre;" direction="ltr" dominant-baseline="alphabetic">    1.1 На покупку</text><text x="0" y="267.52" font-family="Virgil, Segoe UI Emoji" font-size="20px" fill="#1e1e1e" text-anchor="start" style="white-space: pre;" direction="ltr" dominant-baseline="alphabetic">    1.2 На продажу</text><text x="0" y="292.52" font-family="Virgil, Segoe UI Emoji" font-size="20px" fill="#1e1e1e" text-anchor="start" style="white-space: pre;" direction="ltr" dominant-baseline="alphabetic">2. Отслеживать цену</text><text x="0" y="317.52" font-family="Virgil, Segoe UI Emoji" font-size="20px" fill="#1e1e1e" text-anchor="start" style="white-space: pre;" direction="ltr" dominant-baseline="alphabetic">3. Оформить покупку заявки</text><text x="0" y="342.52" font-family="Virgil, Segoe UI Emoji" font-size="20px" fill="#1e1e1e" text-anchor="start" style="white-space: pre;" direction="ltr" dominant-baseline="alphabetic"></text><text x="0" y="367.52" font-family="Virgil, Segoe UI Emoji" font-size="20px" fill="#1e1e1e" text-anchor="start" style="white-space: pre;" direction="ltr" dominant-baseline="alphabetic"></text><text x="0" y="392.52" font-family="Virgil, Segoe UI Emoji" font-size="20px" fill="#1e1e1e" text-anchor="start" style="white-space: pre;" direction="ltr" dominant-baseline="alphabetic">Заявки(Продавцы):</text><text x="0" y="417.52" font-family="Virgil, Segoe UI Emoji" font-size="20px" fill="#1e1e1e" text-anchor="start" style="white-space: pre;" direction="ltr" dominant-baseline="alphabetic">1. Выставить заявку</text><text x="0" y="442.52" font-family="Virgil, Segoe UI Emoji" font-size="20px" fill="#1e1e1e" text-anchor="start" style="white-space: pre;" direction="ltr" dominant-baseline="alphabetic">    1.1 С возможностью аукциона</text><text x="0" y="467.52" font-family="Virgil, Segoe UI Emoji" font-size="20px" fill="#1e1e1e" text-anchor="start" style="white-space: pre;" direction="ltr" dominant-baseline="alphabetic">        1.1.1 Выкупить за какую-то фиксированную цену</text><text x="0" y="492.52" font-family="Virgil, Segoe UI Emoji" font-size="20px" fill="#1e1e1e" text-anchor="start" style="white-space: pre;" direction="ltr" dominant-baseline="alphabetic">    1.2 С возможностью предложения своей цены</text><text x="0" y="517.52" font-family="Virgil, Segoe UI Emoji" font-size="20px" fill="#1e1e1e" text-anchor="start" style="white-space: pre;" direction="ltr" dominant-baseline="alphabetic">2. Отменить свою заявку</text><text x="0" y="542.52" font-family="Virgil, Segoe UI Emoji" font-size="20px" fill="#1e1e1e" text-anchor="start" style="white-space: pre;" direction="ltr" dominant-baseline="alphabetic">    </text><text x="0" y="567.52" font-family="Virgil, Segoe UI Emoji" font-size="20px" fill="#1e1e1e" text-anchor="start" style="white-space: pre;" direction="ltr" dominant-baseline="alphabetic"></text><text x="0" y="592.52" font-family="Virgil, Segoe UI Emoji" font-size="20px" fill="#1e1e1e" text-anchor="start" style="white-space: pre;" direction="ltr" dominant-baseline="alphabetic">Сервис уведомлений:</text><text x="0" y="617.52" font-family="Virgil, Segoe UI Emoji" font-size="20px" fill="#1e1e1e" text-anchor="start" style="white-space: pre;" direction="ltr" dominant-baseline="alphabetic">1. Доставка уведомления</text></g><g transform="translate(550.672777639395 106.27216671779681) rotate(0 308.2916564941406 275)"><text x="0" y="17.52" font-family="Virgil, Segoe UI Emoji" font-size="20px" fill="#1e1e1e" text-anchor="start" style="white-space: pre;" direction="ltr" dominant-baseline="alphabetic">Алгоритм совершения сделки:</text><text x="0" y="42.519999999999996" font-family="Virgil, Segoe UI Emoji" font-size="20px" fill="#1e1e1e" text-anchor="start" style="white-space: pre;" direction="ltr" dominant-baseline="alphabetic">Продавец залогинился на площадку</text><text x="0" y="67.52" font-family="Virgil, Segoe UI Emoji" font-size="20px" fill="#1e1e1e" text-anchor="start" style="white-space: pre;" direction="ltr" dominant-baseline="alphabetic">Продавец создал заявку на площадке</text><text x="0" y="92.52" font-family="Virgil, Segoe UI Emoji" font-size="20px" fill="#1e1e1e" text-anchor="start" style="white-space: pre;" direction="ltr" dominant-baseline="alphabetic"></text><text x="0" y="117.52" font-family="Virgil, Segoe UI Emoji" font-size="20px" fill="#1e1e1e" text-anchor="start" style="white-space: pre;" direction="ltr" dominant-baseline="alphabetic">Покупатель залогинился на площадку</text><text x="0" y="142.52" font-family="Virgil, Segoe UI Emoji" font-size="20px" fill="#1e1e1e" text-anchor="start" style="white-space: pre;" direction="ltr" dominant-baseline="alphabetic">Покупатель получил список заявок на площадке</text><text x="0" y="167.52" font-family="Virgil, Segoe UI Emoji" font-size="20px" fill="#1e1e1e" text-anchor="start" style="white-space: pre;" direction="ltr" dominant-baseline="alphabetic">Покупатель пополняет свой счет</text><text x="0" y="192.52" font-family="Virgil, Segoe UI Emoji" font-size="20px" fill="#1e1e1e" text-anchor="start" style="white-space: pre;" direction="ltr" dominant-baseline="alphabetic"></text><text x="0" y="217.52" font-family="Virgil, Segoe UI Emoji" font-size="20px" fill="#1e1e1e" text-anchor="start" style="white-space: pre;" direction="ltr" dominant-baseline="alphabetic">Покупатель выбирает заявку и нажимает купить</text><text x="0" y="242.52" font-family="Virgil, Segoe UI Emoji" font-size="20px" fill="#1e1e1e" text-anchor="start" style="white-space: pre;" direction="ltr" dominant-baseline="alphabetic">Площадка замораживает средства покупателя</text><text x="0" y="267.52" font-family="Virgil, Segoe UI Emoji" font-size="20px" fill="#1e1e1e" text-anchor="start" style="white-space: pre;" direction="ltr" dominant-baseline="alphabetic">Продавец получает уведомление о намерении совершить сделку</text><text x="0" y="292.52" font-family="Virgil, Segoe UI Emoji" font-size="20px" fill="#1e1e1e" text-anchor="start" style="white-space: pre;" direction="ltr" dominant-baseline="alphabetic">Продавец подтверждает сделку</text><text x="0" y="317.52" font-family="Virgil, Segoe UI Emoji" font-size="20px" fill="#1e1e1e" text-anchor="start" style="white-space: pre;" direction="ltr" dominant-baseline="alphabetic">Площадка отправляет продавцу информацию о покупателе</text><text x="0" y="342.52" font-family="Virgil, Segoe UI Emoji" font-size="20px" fill="#1e1e1e" text-anchor="start" style="white-space: pre;" direction="ltr" dominant-baseline="alphabetic">Продавец отправляет товар</text><text x="0" y="367.52" font-family="Virgil, Segoe UI Emoji" font-size="20px" fill="#1e1e1e" text-anchor="start" style="white-space: pre;" direction="ltr" dominant-baseline="alphabetic"></text><text x="0" y="392.52" font-family="Virgil, Segoe UI Emoji" font-size="20px" fill="#1e1e1e" text-anchor="start" style="white-space: pre;" direction="ltr" dominant-baseline="alphabetic">Сообщаем покупателю о том, что продавец отправил товар</text><text x="0" y="417.52" font-family="Virgil, Segoe UI Emoji" font-size="20px" fill="#1e1e1e" text-anchor="start" style="white-space: pre;" direction="ltr" dominant-baseline="alphabetic">Покупатель получает товар</text><text x="0" y="442.52" font-family="Virgil, Segoe UI Emoji" font-size="20px" fill="#1e1e1e" text-anchor="start" style="white-space: pre;" direction="ltr" dominant-baseline="alphabetic">Покупатель подтверждает, что он получил товар</text><text x="0" y="467.52" font-family="Virgil, Segoe UI Emoji" font-size="20px" fill="#1e1e1e" text-anchor="start" style="white-space: pre;" direction="ltr" dominant-baseline="alphabetic">Площадка переводит продавцу средства</text><text x="0" y="492.52" font-family="Virgil, Segoe UI Emoji" font-size="20px" fill="#1e1e1e" text-anchor="start" style="white-space: pre;" direction="ltr" dominant-baseline="alphabetic">Продавец выводит средства с площадки</text><text x="0" y="517.52" font-family="Virgil, Segoe UI Emoji" font-size="20px" fill="#1e1e1e" text-anchor="start" style="white-space: pre;" direction="ltr" dominant-baseline="alphabetic"></text><text x="0" y="542.52" font-family="Virgil, Segoe UI Emoji" font-size="20px" fill="#1e1e1e" text-anchor="start" style="white-space: pre;" direction="ltr" dominant-baseline="alphabetic"></text></g><g transform="translate(18.331808065151222 476.7924516169795) rotate(0 238.2083282470703 50)"><text x="0" y="17.52" font-family="Virgil, Segoe UI Emoji" font-size="20px" fill="#1e1e1e" text-anchor="start" style="white-space: pre;" direction="ltr" dominant-baseline="alphabetic">вариант А (на ноутбуке):</text><text x="0" y="42.519999999999996" font-family="Virgil, Segoe UI Emoji" font-size="20px" fill="#1e1e1e" text-anchor="start" style="white-space: pre;" direction="ltr" dominant-baseline="alphabetic">1. 10 000 в день активно (всего 50 000)</text><text x="0" y="67.52" font-family="Virgil, Segoe UI Emoji" font-size="20px" fill="#1e1e1e" text-anchor="start" style="white-space: pre;" direction="ltr" dominant-baseline="alphabetic">2. 1 пользователь в день выполняет по 2 сделки</text><text x="0" y="92.52" font-family="Virgil, Segoe UI Emoji" font-size="20px" fill="#1e1e1e" text-anchor="start" style="white-space: pre;" direction="ltr" dominant-baseline="alphabetic">3. Да. 3 года.</text></g><g stroke-linecap="round" transform="translate(1746.6783224484793 946.5991625128132) rotate(0 59.125 41.625)"><path d="M20.81 0 C49.49 -0.54, 77.13 -0.25, 97.44 0 M20.81 0 C40.6 -1.22, 60.53 -0.35, 97.44 0 M97.44 0 C110.02 -1.43, 118.68 7.12, 118.25 20.81 M97.44 0 C112.35 0.91, 119.45 7.51, 118.25 20.81 M118.25 20.81 C118.87 27.3, 116.16 39.19, 118.25 62.44 M118.25 20.81 C118.82 36.75, 118.98 53.48, 118.25 62.44 M118.25 62.44 C118.69 76.59, 112.97 82.25, 97.44 83.25 M118.25 62.44 C119.26 77.62, 111.84 83.08, 97.44 83.25 M97.44 83.25 C67.15 81.87, 38.06 81.6, 20.81 83.25 M97.44 83.25 C70.57 82.86, 43.76 83.58, 20.81 83.25 M20.81 83.25 C5.3 82.15, -0.63 76.64, 0 62.44 M20.81 83.25 C4.77 83.94, -0.73 77.44, 0 62.44 M0 62.44 C0.58 54.76, 0.76 44.33, 0 20.81 M0 62.44 C-0.86 48.15, -0.91 32.9, 0 20.81 M0 20.81 C-1.46 8.6, 6.71 1.74, 20.81 0 M0 20.81 C2.27 7.07, 8.41 1.35, 20.81 0" stroke="#1e1e1e" stroke-width="2" fill="none"></path></g><g transform="translate(1764.6783224484793 963.2241625128132) rotate(0 41.125 25)"><text x="41.125" y="17.52" font-family="Virgil, Segoe UI Emoji" font-size="20px" fill="#1e1e1e" text-anchor="middle" style="white-space: pre;" direction="ltr" dominant-baseline="alphabetic">Сервис</text><text x="41.125" y="42.519999999999996" font-family="Virgil, Segoe UI Emoji" font-size="20px" fill="#1e1e1e" text-anchor="middle" style="white-space: pre;" direction="ltr" dominant-baseline="alphabetic">P2P ТП</text></g><g stroke-linecap="round" transform="translate(1766.2616557818128 1143.26582917948) rotate(0 59.125 41.625)"><path d="M20.81 0 C48.08 1.8, 70.74 -0.95, 97.44 0 M20.81 0 C39.06 -0.71, 55.69 -1.32, 97.44 0 M97.44 0 C112.82 -1.45, 119.76 7.02, 118.25 20.81 M97.44 0 C109.58 -2.1, 119.6 9.05, 118.25 20.81 M118.25 20.81 C117.68 33.62, 116.29 41.43, 118.25 62.44 M118.25 20.81 C118.8 31.41, 118.59 39.49, 118.25 62.44 M118.25 62.44 C117.46 76.73, 112.48 83.4, 97.44 83.25 M118.25 62.44 C117.29 75.99, 109.92 84.05, 97.44 83.25 M97.44 83.25 C78.99 83.41, 61.9 83.88, 20.81 83.25 M97.44 83.25 C81.19 83.94, 64.75 83.04, 20.81 83.25 M20.81 83.25 C6.58 81.95, 1.74 77.47, 0 62.44 M20.81 83.25 C6.23 83.34, 0.49 74.27, 0 62.44 M0 62.44 C-0.59 54.98, 1.52 44.44, 0 20.81 M0 62.44 C0.12 49.36, -0.84 38.39, 0 20.81 M0 20.81 C-1.2 7.67, 6.81 -0.29, 20.81 0 M0 20.81 C-0.47 6.94, 8.56 -2.07, 20.81 0" stroke="#1e1e1e" stroke-width="2" fill="none"></path></g><g transform="translate(1784.2616557818128 1159.89082917948) rotate(0 41.125 25)"><text x="41.125" y="17.52" font-family="Virgil, Segoe UI Emoji" font-size="20px" fill="#1e1e1e" text-anchor="middle" style="white-space: pre;" direction="ltr" dominant-baseline="alphabetic">Сервис</text><text x="41.125" y="42.519999999999996" font-family="Virgil, Segoe UI Emoji" font-size="20px" fill="#1e1e1e" text-anchor="middle" style="white-space: pre;" direction="ltr" dominant-baseline="alphabetic">P2P ТП</text></g><g stroke-linecap="round" transform="translate(1803.4045129246697 1287.313448227099) rotate(0 59.125 30)"><path d="M15 0 C47.44 0.44, 77.23 1.21, 103.25 0 M15 0 C49.02 1.09, 82.36 1.44, 103.25 0 M103.25 0 C112.34 -1.82, 120.04 5.31, 118.25 15 M103.25 0 C114.08 -1.02, 120.03 3.74, 118.25 15 M118.25 15 C118.39 27.16, 118.41 33.71, 118.25 45 M118.25 15 C117.93 22.7, 118.31 31.36, 118.25 45 M118.25 45 C116.5 54.51, 114.48 61.64, 103.25 60 M118.25 45 C119.31 56.75, 114.18 59.14, 103.25 60 M103.25 60 C69.78 58.73, 38.3 58.9, 15 60 M103.25 60 C80.12 59.85, 57.69 60.08, 15 60 M15 60 C6.48 60.3, -0.68 56.11, 0 45 M15 60 C6.68 60.99, 2.11 55.86, 0 45 M0 45 C0.03 36.03, 1.25 24.17, 0 15 M0 45 C-0.78 37.28, -0.38 30.04, 0 15 M0 15 C-0.89 6.55, 3.93 0.27, 15 0 M0 15 C0.72 3.06, 6.35 -0.73, 15 0" stroke="#1e1e1e" stroke-width="2" fill="none"></path></g><g transform="translate(1827.5670113987908 1292.313448227099) rotate(0 34.962501525878906 25)"><text x="34.962501525878906" y="17.52" font-family="Virgil, Segoe UI Emoji" font-size="20px" fill="#1e1e1e" text-anchor="middle" style="white-space: pre;" direction="ltr" dominant-baseline="alphabetic">Outbox</text><text x="34.962501525878906" y="42.519999999999996" font-family="Virgil, Segoe UI Emoji" font-size="20px" fill="#1e1e1e" text-anchor="middle" style="white-space: pre;" direction="ltr" dominant-baseline="alphabetic">worker</text></g><g stroke-linecap="round" transform="translate(1944.8926081627646 970.0039244175747) rotate(0 55 43.76785714285711)"><path d="M21.88 0 C45.89 0.59, 67.26 -0.47, 88.12 0 M21.88 0 C45.25 -0.59, 69.82 0.01, 88.12 0 M88.12 0 C102.41 -0.67, 109.35 8.43, 110 21.88 M88.12 0 C104.64 -0.06, 108.85 7.54, 110 21.88 M110 21.88 C110.57 32.89, 108.93 48.69, 110 65.65 M110 21.88 C110.19 37.99, 110.37 52.61, 110 65.65 M110 65.65 C110.33 80.35, 101.32 86.37, 88.12 87.54 M110 65.65 C111.59 80.62, 103.91 85.75, 88.12 87.54 M88.12 87.54 C71.62 85.45, 54.33 87.28, 21.88 87.54 M88.12 87.54 C69.67 86.77, 50.85 87.9, 21.88 87.54 M21.88 87.54 C6.21 85.76, 1.89 81.89, 0 65.65 M21.88 87.54 C6.37 85.35, -1.92 80.02, 0 65.65 M0 65.65 C-0.2 52.01, -2.06 36.54, 0 21.88 M0 65.65 C0.36 55.08, 0.01 45.52, 0 21.88 M0 21.88 C-1.15 5.52, 9.22 -1.68, 21.88 0 M0 21.88 C-2.07 8.6, 8.76 -1.93, 21.88 0" stroke="#1e1e1e" stroke-width="2" fill="none"></path></g><g transform="translate(1965.7926096886436 976.2717815604318) rotate(0 34.099998474121094 37.5)"><text x="34.099998474121094" y="17.52" font-family="Virgil, Segoe UI Emoji" font-size="20px" fill="#1e1e1e" text-anchor="middle" style="white-space: pre;" direction="ltr" dominant-baseline="alphabetic">БД</text><text x="34.099998474121094" y="42.519999999999996" font-family="Virgil, Segoe UI Emoji" font-size="20px" fill="#1e1e1e" text-anchor="middle" style="white-space: pre;" direction="ltr" dominant-baseline="alphabetic"></text><text x="34.099998474121094" y="67.52" font-family="Virgil, Segoe UI Emoji" font-size="20px" fill="#1e1e1e" text-anchor="middle" style="white-space: pre;" direction="ltr" dominant-baseline="alphabetic">мастер</text></g><g stroke-linecap="round" transform="translate(1140.4283224484802 1171.0158291794796) rotate(0 60 60.791666666666515)"><path d="M30 0 C47 1.54, 61.17 1.26, 90 0 M30 0 C52.53 -0.07, 74.2 0.47, 90 0 M90 0 C108.95 1.15, 118.17 11.8, 120 30 M90 0 C110.97 0.54, 121.26 8.51, 120 30 M120 30 C120.14 50.9, 119.26 75.6, 120 91.58 M120 30 C119.51 52.01, 118.57 74.79, 120 91.58 M120 91.58 C119.03 110.25, 110.23 122.97, 90 121.58 M120 91.58 C119.14 113.21, 111.67 122.14, 90 121.58 M90 121.58 C70.35 121.93, 48.88 119.5, 30 121.58 M90 121.58 C76.42 121.6, 63.46 122.45, 30 121.58 M30 121.58 C9.58 123.49, -0.12 110.31, 0 91.58 M30 121.58 C8.79 123.14, -1.43 112, 0 91.58 M0 91.58 C0.45 67.76, -1.69 41.88, 0 30 M0 91.58 C0.26 69.19, -1.18 46.33, 0 30 M0 30 C1.75 11.87, 8.3 0.71, 30 0 M0 30 C0.29 12.27, 9.54 1.93, 30 0" stroke="#1e1e1e" stroke-width="2" fill="none"></path></g><g transform="translate(1187.1158224484802 1219.3074958461461) rotate(0 13.3125 12.5)"><text x="13.3125" y="17.52" font-family="Virgil, Segoe UI Emoji" font-size="20px" fill="#1e1e1e" text-anchor="middle" style="white-space: pre;" direction="ltr" dominant-baseline="alphabetic">LB</text></g><g stroke-linecap="round" transform="translate(945.8449891151465 1194.7658291794796) rotate(0 53.125 36.625)"><path d="M18.31 0 C41.41 2.55, 62.22 -1.08, 87.94 0 C98.13 -0.13, 108.26 8.77, 106.25 18.31 C103.55 35.88, 106.99 49.97, 106.25 54.94 C104.48 70.3, 102.54 76.41, 87.94 73.25 C59.76 70.03, 31.37 72.78, 18.31 73.25 C9.4 75.88, 1.73 67.15, 0 54.94 C-2.83 39.72, 1.98 34.46, 0 18.31 C2.13 8.89, 9.22 1.05, 18.31 0" stroke="none" stroke-width="0" fill="#ffc9c9"></path><path d="M18.31 0 C34.59 -0.94, 52.64 -0.54, 87.94 0 M18.31 0 C37.04 0.18, 56.17 -1.33, 87.94 0 M87.94 0 C100.35 1.88, 105.19 7.8, 106.25 18.31 M87.94 0 C98.62 -1.76, 108.27 4.66, 106.25 18.31 M106.25 18.31 C107.65 28.51, 105.75 35.04, 106.25 54.94 M106.25 18.31 C106.65 32.24, 106.55 44.99, 106.25 54.94 M106.25 54.94 C104.62 67.96, 98.74 71.61, 87.94 73.25 M106.25 54.94 C103.99 65.44, 101.57 74.65, 87.94 73.25 M87.94 73.25 C71.5 71.47, 54.19 74.68, 18.31 73.25 M87.94 73.25 C69.01 72.2, 48.33 71.99, 18.31 73.25 M18.31 73.25 C5.44 75.13, -0.63 66.67, 0 54.94 M18.31 73.25 C6.19 72.58, 0.93 67.39, 0 54.94 M0 54.94 C2.02 42.6, 0.08 29.65, 0 18.31 M0 54.94 C0.41 48.42, -0.88 39.92, 0 18.31 M0 18.31 C1.51 7.92, 7.7 -0.9, 18.31 0 M0 18.31 C2.19 5.34, 7.54 1.51, 18.31 0" stroke="#1e1e1e" stroke-width="2" fill="none"></path></g><g transform="translate(960.4324906410254 1218.8908291794796) rotate(0 38.537498474121094 12.5)"><text x="38.537498474121094" y="17.52" font-family="Virgil, Segoe UI Emoji" font-size="20px" fill="#1e1e1e" text-anchor="middle" style="white-space: pre;" direction="ltr" dominant-baseline="alphabetic">Browser</text></g><g stroke-linecap="round"><g transform="translate(1053.0949891151467 1227.9142397331957) rotate(0 42.035520460803696 -1.4901070145762105)"><path d="M-0.65 -0.42 C13.41 -0.65, 70.49 -2.27, 84.72 -2.56 M1.21 -1.68 C15.17 -1.71, 70.44 -1.67, 84.32 -1.59" stroke="#1e1e1e" stroke-width="2" fill="none"></path></g><g transform="translate(1053.0949891151467 1227.9142397331957) rotate(0 42.035520460803696 -1.4901070145762105)"><path d="M60.81 6.9 C67.92 5.98, 74.56 3.22, 84.32 -1.59 M60.81 6.9 C67.01 3.82, 71.93 1.92, 84.32 -1.59" stroke="#1e1e1e" stroke-width="2" fill="none"></path></g><g transform="translate(1053.0949891151467 1227.9142397331957) rotate(0 42.035520460803696 -1.4901070145762105)"><path d="M60.86 -10.2 C67.79 -5.5, 74.42 -2.65, 84.32 -1.59 M60.86 -10.2 C67.14 -9.11, 72.05 -6.84, 84.32 -1.59" stroke="#1e1e1e" stroke-width="2" fill="none"></path></g></g><mask></mask><g stroke-linecap="round"><g transform="translate(1742.603678303804 1023.3141866203215) rotate(0 -37.79009552224102 53.56952439221459)"><path d="M0 -0.29 C-12.6 17.52, -62.45 89.34, -75.25 107.16 M-1.46 -1.49 C-14.15 16.5, -62.86 90.46, -75.58 108.63" stroke="#1e1e1e" stroke-width="2" fill="none"></path></g><g transform="translate(1742.603678303804 1023.3141866203215) rotate(0 -37.79009552224102 53.56952439221459)"><path d="M-69.5 84.39 C-71.95 94.37, -73.68 99.8, -75.58 108.63 M-69.5 84.39 C-71.6 90.74, -71.5 96.73, -75.58 108.63" stroke="#1e1e1e" stroke-width="2" fill="none"></path></g><g transform="translate(1742.603678303804 1023.3141866203215) rotate(0 -37.79009552224102 53.56952439221459)"><path d="M-55.33 93.97 C-62.5 100.78, -68.91 103.04, -75.58 108.63 M-55.33 93.97 C-60.93 97.92, -64.29 101.57, -75.58 108.63" stroke="#1e1e1e" stroke-width="2" fill="none"></path></g></g><mask></mask><g stroke-linecap="round" transform="translate(1952.9878462580027 1138.0991625128136) rotate(0 55 43.76785714285711)"><path d="M21.88 0 C36.15 -1.16, 51.99 0.94, 88.12 0 M21.88 0 C48.19 0.43, 73.16 -1.07, 88.12 0 M88.12 0 C104.59 0.32, 111.15 6.76, 110 21.88 M88.12 0 C103.65 2.24, 108 6.61, 110 21.88 M110 21.88 C111.17 36.11, 111.86 48.83, 110 65.65 M110 21.88 C109.85 32.2, 110.58 44.42, 110 65.65 M110 65.65 C110.95 81.13, 101.22 87.83, 88.12 87.54 M110 65.65 C109.85 82.4, 100.82 88.36, 88.12 87.54 M88.12 87.54 C62.74 88.51, 39.48 87.62, 21.88 87.54 M88.12 87.54 C68.03 86.74, 48.62 87.86, 21.88 87.54 M21.88 87.54 C5.59 86.5, -0.73 81.81, 0 65.65 M21.88 87.54 C7.47 89.33, -1.75 80.65, 0 65.65 M0 65.65 C1.78 50.63, -1.24 40.39, 0 21.88 M0 65.65 C1.07 51.65, 0.48 39.56, 0 21.88 M0 21.88 C1.96 8.71, 7.23 -0.65, 21.88 0 M0 21.88 C-1.42 6.43, 5.37 1.89, 21.88 0" stroke="#1e1e1e" stroke-width="2" fill="none"></path></g><g transform="translate(1973.8878477838816 1144.3670196556707) rotate(0 34.099998474121094 37.5)"><text x="34.099998474121094" y="17.52" font-family="Virgil, Segoe UI Emoji" font-size="20px" fill="#1e1e1e" text-anchor="middle" style="white-space: pre;" direction="ltr" dominant-baseline="alphabetic">БД</text><text x="34.099998474121094" y="42.519999999999996" font-family="Virgil, Segoe UI Emoji" font-size="20px" fill="#1e1e1e" text-anchor="middle" style="white-space: pre;" direction="ltr" dominant-baseline="alphabetic"></text><text x="34.099998474121094" y="67.52" font-family="Virgil, Segoe UI Emoji" font-size="20px" fill="#1e1e1e" text-anchor="middle" style="white-space: pre;" direction="ltr" dominant-baseline="alphabetic">мастер</text></g><g stroke-linecap="round"><g transform="translate(1866.353678303804 975.50827338076) rotate(0 38.91859570823999 12.216314494957828)"><path d="M-0.55 -0.7 C12.62 3.55, 65.34 20.75, 78.39 25.13 M1.36 1.55 C14.5 5.47, 65.27 19.56, 77.88 23.26" stroke="#2f9e44" stroke-width="2" fill="none"></path></g><g transform="translate(1866.353678303804 975.50827338076) rotate(0 38.91859570823999 12.216314494957828)"><path d="M52.95 25.05 C58 26.13, 66.17 24.58, 77.88 23.26 M52.95 25.05 C62.56 24.83, 71.07 24.39, 77.88 23.26" stroke="#2f9e44" stroke-width="2" fill="none"></path></g><g transform="translate(1866.353678303804 975.50827338076) rotate(0 38.91859570823999 12.216314494957828)"><path d="M57.63 8.6 C61.47 13.76, 68.47 16.3, 77.88 23.26 M57.63 8.6 C65.43 14.62, 72.16 20.4, 77.88 23.26" stroke="#2f9e44" stroke-width="2" fill="none"></path></g></g><mask></mask><g stroke-linecap="round"><g transform="translate(1885.5116557818137 1148.7204328998055) rotate(0 37.04909773937561 -44.95287243963651)"><path d="M0.89 0.62 C13.45 -14.01, 61.91 -73.78, 74.19 -88.53 M-0.1 -0.11 C12.47 -15.05, 61.22 -75.58, 73.63 -90.52" stroke="#2f9e44" stroke-width="2" fill="none"></path></g><g transform="translate(1885.5116557818137 1148.7204328998055) rotate(0 37.04909773937561 -44.95287243963651)"><path d="M65.4 -66.92 C68.26 -70.58, 69.35 -74.79, 73.63 -90.52 M65.4 -66.92 C68.16 -75.12, 72.05 -84.35, 73.63 -90.52" stroke="#2f9e44" stroke-width="2" fill="none"></path></g><g transform="translate(1885.5116557818137 1148.7204328998055) rotate(0 37.04909773937561 -44.95287243963651)"><path d="M52.15 -77.73 C57.66 -79.28, 61.47 -81.27, 73.63 -90.52 M52.15 -77.73 C59.8 -81.81, 68.63 -86.99, 73.63 -90.52" stroke="#2f9e44" stroke-width="2" fill="none"></path></g></g><mask></mask><g stroke-linecap="round" transform="translate(2111.083084353241 988.0991625128128) rotate(0 40.71428571428578 42.5)"><path d="M20.36 0 C35.09 1.6, 51.17 -0.96, 61.07 0 M20.36 0 C33.88 -0.12, 46.55 -0.02, 61.07 0 M61.07 0 C73.99 0.41, 79.46 5.35, 81.43 20.36 M61.07 0 C73.44 2.1, 80.31 6.76, 81.43 20.36 M81.43 20.36 C80.39 32.27, 81.25 45.58, 81.43 64.64 M81.43 20.36 C80.67 35.28, 81.72 49.93, 81.43 64.64 M81.43 64.64 C81.05 79.93, 74.56 85.29, 61.07 85 M81.43 64.64 C81.85 80.23, 72.75 84.34, 61.07 85 M61.07 85 C47.72 83.76, 36.92 84.35, 20.36 85 M61.07 85 C52.28 85.74, 43.62 85.11, 20.36 85 M20.36 85 C6.11 84.87, 1.17 78.4, 0 64.64 M20.36 85 C7.37 83.95, -2.3 77.81, 0 64.64 M0 64.64 C0.75 46.61, -0.79 32.5, 0 20.36 M0 64.64 C0.43 50.81, 0.5 36.03, 0 20.36 M0 20.36 C1.63 7.33, 6 -0.53, 20.36 0 M0 20.36 C-0.05 7.59, 7.53 1.38, 20.36 0" stroke="#1e1e1e" stroke-width="2" fill="none"></path></g><g transform="translate(2125.2098704489968 993.0991625128128) rotate(0 26.587499618530273 37.5)"><text x="26.587499618530273" y="17.52" font-family="Virgil, Segoe UI Emoji" font-size="20px" fill="#1e1e1e" text-anchor="middle" style="white-space: pre;" direction="ltr" dominant-baseline="alphabetic">БД</text><text x="26.587499618530273" y="42.519999999999996" font-family="Virgil, Segoe UI Emoji" font-size="20px" fill="#1e1e1e" text-anchor="middle" style="white-space: pre;" direction="ltr" dominant-baseline="alphabetic"></text><text x="26.587499618530273" y="67.52" font-family="Virgil, Segoe UI Emoji" font-size="20px" fill="#1e1e1e" text-anchor="middle" style="white-space: pre;" direction="ltr" dominant-baseline="alphabetic">async</text></g><g stroke-linecap="round" transform="translate(2111.5592748294316 1223.8134482270984) rotate(0 40.71428571428578 42.5)"><path d="M20.36 0 C30.85 1, 43.87 -0.47, 61.07 0 M20.36 0 C35.08 -0.96, 51.6 -0.21, 61.07 0 M61.07 0 C75.8 -0.54, 82.25 8.74, 81.43 20.36 M61.07 0 C72.64 -0.68, 81.47 7.53, 81.43 20.36 M81.43 20.36 C83.37 33.3, 80.7 43.58, 81.43 64.64 M81.43 20.36 C82.46 33.64, 82 46.49, 81.43 64.64 M81.43 64.64 C79.95 78.51, 74.51 86.87, 61.07 85 M81.43 64.64 C79.54 79.04, 75.92 86.81, 61.07 85 M61.07 85 C45.93 85.01, 33.9 86.19, 20.36 85 M61.07 85 C50.55 85.35, 38.82 84.26, 20.36 85 M20.36 85 C6.05 86.57, 0.15 79.78, 0 64.64 M20.36 85 C5.04 85.41, 0.11 77.55, 0 64.64 M0 64.64 C-1.73 50.88, -0.39 32.44, 0 20.36 M0 64.64 C-0.22 50.05, 0.68 36, 0 20.36 M0 20.36 C-0.07 6.13, 5.55 -0.75, 20.36 0 M0 20.36 C-1.92 8.68, 6.09 -0.51, 20.36 0" stroke="#1e1e1e" stroke-width="2" fill="none"></path></g><g transform="translate(2125.6860609251876 1228.8134482270984) rotate(0 26.587499618530273 37.5)"><text x="26.587499618530273" y="17.52" font-family="Virgil, Segoe UI Emoji" font-size="20px" fill="#1e1e1e" text-anchor="middle" style="white-space: pre;" direction="ltr" dominant-baseline="alphabetic">БД</text><text x="26.587499618530273" y="42.519999999999996" font-family="Virgil, Segoe UI Emoji" font-size="20px" fill="#1e1e1e" text-anchor="middle" style="white-space: pre;" direction="ltr" dominant-baseline="alphabetic"></text><text x="26.587499618530273" y="67.52" font-family="Virgil, Segoe UI Emoji" font-size="20px" fill="#1e1e1e" text-anchor="middle" style="white-space: pre;" direction="ltr" dominant-baseline="alphabetic">async</text></g><g stroke-linecap="round" transform="translate(2112.987846258003 882.384876798527) rotate(0 35.71428571428555 42.5)"><path d="M17.86 0 C26.44 0.4, 33.75 1.85, 53.57 0 M17.86 0 C26.46 -0.81, 34.04 -0.27, 53.57 0 M53.57 0 C63.55 -0.33, 70.46 4.44, 71.43 17.86 M53.57 0 C67.47 -0.16, 69.45 4.24, 71.43 17.86 M71.43 17.86 C72.19 29.41, 69.9 43.96, 71.43 67.14 M71.43 17.86 C72.58 26.86, 72.75 38.44, 71.43 67.14 M71.43 67.14 C70.28 78.79, 66.3 85.03, 53.57 85 M71.43 67.14 C72.98 77.02, 65.03 84.35, 53.57 85 M53.57 85 C41.22 85.07, 25.01 84.14, 17.86 85 M53.57 85 C44.79 85.9, 35.97 84.2, 17.86 85 M17.86 85 C6.64 83.44, 0.1 78.19, 0 67.14 M17.86 85 C8.21 86.32, 0.88 77.56, 0 67.14 M0 67.14 C-1.33 51.88, 0.08 34.05, 0 17.86 M0 67.14 C-0.87 52.28, 0.16 36.81, 0 17.86 M0 17.86 C-1.45 4.08, 4.37 -0.73, 17.86 0 M0 17.86 C-0.19 3.74, 4.53 -1.39, 17.86 0" stroke="#1e1e1e" stroke-width="2" fill="none"></path></g><g transform="translate(2128.814631209349 887.384876798527) rotate(0 19.887500762939453 37.5)"><text x="19.887500762939453" y="17.52" font-family="Virgil, Segoe UI Emoji" font-size="20px" fill="#1e1e1e" text-anchor="middle" style="white-space: pre;" direction="ltr" dominant-baseline="alphabetic">БД</text><text x="19.887500762939453" y="42.519999999999996" font-family="Virgil, Segoe UI Emoji" font-size="20px" fill="#1e1e1e" text-anchor="middle" style="white-space: pre;" direction="ltr" dominant-baseline="alphabetic"></text><text x="19.887500762939453" y="67.52" font-family="Virgil, Segoe UI Emoji" font-size="20px" fill="#1e1e1e" text-anchor="middle" style="white-space: pre;" direction="ltr" dominant-baseline="alphabetic">sync</text></g><g stroke-linecap="round" transform="translate(2118.7021319722894 1110.9563053699558) rotate(0 35.71428571428555 42.5)"><path d="M17.86 0 C27.92 -0.88, 35.81 0.77, 53.57 0 M17.86 0 C32.75 0.37, 46.34 -0.06, 53.57 0 M53.57 0 C66.3 1.95, 69.69 5.36, 71.43 17.86 M53.57 0 C65.52 0.75, 70.98 7.13, 71.43 17.86 M71.43 17.86 C70.9 33.49, 71.65 52.83, 71.43 67.14 M71.43 17.86 C72.37 29.47, 71.15 40.34, 71.43 67.14 M71.43 67.14 C71.3 80.92, 63.84 85.72, 53.57 85 M71.43 67.14 C72.7 80.86, 66.25 82.89, 53.57 85 M53.57 85 C41.51 86.01, 28.72 84.47, 17.86 85 M53.57 85 C43.96 84.69, 35.67 85.99, 17.86 85 M17.86 85 C6.11 86.56, -1.52 79.4, 0 67.14 M17.86 85 C6.06 84.34, 0.99 80.95, 0 67.14 M0 67.14 C0.32 54.67, 0.96 47.2, 0 17.86 M0 67.14 C0.94 57.57, -0.07 46.26, 0 17.86 M0 17.86 C-1.24 5.2, 4.28 1.64, 17.86 0 M0 17.86 C-0.69 5.44, 5.16 2.13, 17.86 0" stroke="#1e1e1e" stroke-width="2" fill="none"></path></g><g transform="translate(2134.5289169236353 1115.9563053699558) rotate(0 19.887500762939453 37.5)"><text x="19.887500762939453" y="17.52" font-family="Virgil, Segoe UI Emoji" font-size="20px" fill="#1e1e1e" text-anchor="middle" style="white-space: pre;" direction="ltr" dominant-baseline="alphabetic">БД</text><text x="19.887500762939453" y="42.519999999999996" font-family="Virgil, Segoe UI Emoji" font-size="20px" fill="#1e1e1e" text-anchor="middle" style="white-space: pre;" direction="ltr" dominant-baseline="alphabetic"></text><text x="19.887500762939453" y="67.52" font-family="Virgil, Segoe UI Emoji" font-size="20px" fill="#1e1e1e" text-anchor="middle" style="white-space: pre;" direction="ltr" dominant-baseline="alphabetic">sync</text></g><g stroke-linecap="round"><g transform="translate(2056.025116611792 981.5290657044812) rotate(0 31.12004342951991 -22.887721580628863)"><path d="M0.8 0.18 C11.1 -7.32, 52.52 -38.42, 62.48 -45.96 M-0.24 -0.76 C9.91 -7.97, 51.4 -36.64, 61.92 -44.32" stroke="#2f9e44" stroke-width="2" fill="none"></path></g><g transform="translate(2056.025116611792 981.5290657044812) rotate(0 31.12004342951991 -22.887721580628863)"><path d="M47.69 -23.77 C53.19 -29.95, 58.24 -40.42, 61.92 -44.32 M47.69 -23.77 C54 -31.7, 58.2 -38.76, 61.92 -44.32" stroke="#2f9e44" stroke-width="2" fill="none"></path></g><g transform="translate(2056.025116611792 981.5290657044812) rotate(0 31.12004342951991 -22.887721580628863)"><path d="M37.8 -37.72 C46.71 -39.02, 55.26 -44.55, 61.92 -44.32 M37.8 -37.72 C48 -40.15, 56.06 -41.76, 61.92 -44.32" stroke="#2f9e44" stroke-width="2" fill="none"></path></g></g><mask></mask><g stroke-linecap="round"><g transform="translate(2055.8926081627646 1023.9470277078245) rotate(0 26.49668174111048 0.492071198726876)"><path d="M0.92 -0.87 C9.8 -0.49, 44.5 1.56, 53.05 1.86 M-0.06 1.29 C8.74 1.35, 43.83 -0.1, 52.39 0.02" stroke="#2f9e44" stroke-width="2" fill="none"></path></g><g transform="translate(2055.8926081627646 1023.9470277078245) rotate(0 26.49668174111048 0.492071198726876)"><path d="M29.04 8.98 C34.12 7.2, 43 3.32, 52.39 0.02 M29.04 8.98 C35.3 6.16, 42.12 3.43, 52.39 0.02" stroke="#2f9e44" stroke-width="2" fill="none"></path></g><g transform="translate(2055.8926081627646 1023.9470277078245) rotate(0 26.49668174111048 0.492071198726876)"><path d="M28.75 -8.12 C33.85 -5.14, 42.81 -4.26, 52.39 0.02 M28.75 -8.12 C35.2 -6.39, 42.09 -4.56, 52.39 0.02" stroke="#2f9e44" stroke-width="2" fill="none"></path></g></g><mask></mask><g transform="translate(18.331808065151222 615.8400706645986) rotate(0 238.2083282470703 50)"><text x="0" y="17.52" font-family="Virgil, Segoe UI Emoji" font-size="20px" fill="#1e1e1e" text-anchor="start" style="white-space: pre;" direction="ltr" dominant-baseline="alphabetic">Вариант Б (продакшн):</text><text x="0" y="42.519999999999996" font-family="Virgil, Segoe UI Emoji" font-size="20px" fill="#1e1e1e" text-anchor="start" style="white-space: pre;" direction="ltr" dominant-baseline="alphabetic">1. 100 000 в день активно (всего 500 000)</text><text x="0" y="67.52" font-family="Virgil, Segoe UI Emoji" font-size="20px" fill="#1e1e1e" text-anchor="start" style="white-space: pre;" direction="ltr" dominant-baseline="alphabetic">2. 1 пользователь в день выполняет по 2 сделки</text><text x="0" y="92.52" font-family="Virgil, Segoe UI Emoji" font-size="20px" fill="#1e1e1e" text-anchor="start" style="white-space: pre;" direction="ltr" dominant-baseline="alphabetic">3. Да. 3 года. - 1000 дней</text></g><g stroke-linecap="round"><g transform="translate(1865.9283224484793 1023.6174701691299) rotate(0 42.7340203578874 60.989950718662385)"><path d="M0.43 -0.09 C14.92 20.34, 71.96 101.43, 86.27 121.59 M-0.8 -1.18 C13.63 19.55, 71.13 102.64, 85.56 123.16" stroke="#2f9e44" stroke-width="2" fill="none"></path></g><g transform="translate(1865.9283224484793 1023.6174701691299) rotate(0 42.7340203578874 60.989950718662385)"><path d="M65.12 108.77 C69.81 112.95, 75.01 116.47, 85.56 123.16 M65.12 108.77 C70.34 112.41, 75.34 115.08, 85.56 123.16" stroke="#2f9e44" stroke-width="2" fill="none"></path></g><g transform="translate(1865.9283224484793 1023.6174701691299) rotate(0 42.7340203578874 60.989950718662385)"><path d="M79.15 99 C80.36 105.6, 82.15 111.49, 85.56 123.16 M79.15 99 C80.98 105.1, 82.5 110.19, 85.56 123.16" stroke="#2f9e44" stroke-width="2" fill="none"></path></g></g><mask></mask><g stroke-linecap="round"><g transform="translate(1885.5416486768163 1196.26564427519) rotate(0 32.8611185618679 -1.4458574000609588)"><path d="M0 -0.13 C11.35 -0.55, 56 -2.33, 67.18 -2.76 M-1.46 -1.25 C9.9 -1.52, 55.37 -1.66, 66.75 -1.76" stroke="#2f9e44" stroke-width="2" fill="none"></path></g><g transform="translate(1885.5416486768163 1196.26564427519) rotate(0 32.8611185618679 -1.4458574000609588)"><path d="M43.31 6.93 C48.31 6.63, 52.04 4.57, 66.75 -1.76 M43.31 6.93 C48.4 5, 52.71 2.29, 66.75 -1.76" stroke="#2f9e44" stroke-width="2" fill="none"></path></g><g transform="translate(1885.5416486768163 1196.26564427519) rotate(0 32.8611185618679 -1.4458574000609588)"><path d="M43.21 -10.17 C48.2 -6.66, 51.94 -4.93, 66.75 -1.76 M43.21 -10.17 C48.47 -8.32, 52.8 -7.24, 66.75 -1.76" stroke="#2f9e44" stroke-width="2" fill="none"></path></g></g><mask></mask><g stroke-linecap="round"><g transform="translate(2066.0251166117914 1166.4488356011066) rotate(0 25.880323239498466 -1.2935853229860186)"><path d="M0.11 -0.39 C8.93 -0.59, 44.33 -1.87, 53.05 -2.19 M-1.29 -1.65 C7.38 -1.56, 43.41 -0.8, 52.2 -0.73" stroke="#2f9e44" stroke-width="2" fill="none"></path></g><g transform="translate(2066.0251166117914 1166.4488356011066) rotate(0 25.880323239498466 -1.2935853229860186)"><path d="M28.57 7.46 C35.32 5.21, 43.09 1.63, 52.2 -0.73 M28.57 7.46 C35.88 5.36, 40.77 2.44, 52.2 -0.73" stroke="#2f9e44" stroke-width="2" fill="none"></path></g><g transform="translate(2066.0251166117914 1166.4488356011066) rotate(0 25.880323239498466 -1.2935853229860186)"><path d="M28.84 -9.64 C35.36 -6.58, 43.05 -4.85, 52.2 -0.73 M28.84 -9.64 C35.98 -7.03, 40.79 -5.24, 52.2 -0.73" stroke="#2f9e44" stroke-width="2" fill="none"></path></g></g><mask></mask><g stroke-linecap="round"><g transform="translate(2064.5965451832208 1210.158570822096) rotate(0 21.44331042789736 23.352846113395003)"><path d="M0.5 0.68 C7.76 8.35, 36.38 38.03, 43.58 45.37 M-0.69 0 C6.46 7.89, 35.67 39.12, 43.01 46.71" stroke="#2f9e44" stroke-width="2" fill="none"></path></g><g transform="translate(2064.5965451832208 1210.158570822096) rotate(0 21.44331042789736 23.352846113395003)"><path d="M20.64 35.54 C28.53 40.05, 33.55 43.59, 43.01 46.71 M20.64 35.54 C25.79 38.3, 29.31 40.34, 43.01 46.71" stroke="#2f9e44" stroke-width="2" fill="none"></path></g><g transform="translate(2064.5965451832208 1210.158570822096) rotate(0 21.44331042789736 23.352846113395003)"><path d="M33.05 23.78 C37.1 31.91, 38.34 39.03, 43.01 46.71 M33.05 23.78 C35.6 29.15, 36.47 33.71, 43.01 46.71" stroke="#2f9e44" stroke-width="2" fill="none"></path></g></g><mask></mask><g stroke-linecap="round" transform="translate(940.8449891151465 1306.4324958461466) rotate(0 53.125 36.625)"><path d="M18.31 0 C43.37 2.34, 67.61 0.73, 87.94 0 M18.31 0 C36.68 -0.16, 55.34 -0.28, 87.94 0 M87.94 0 C99.34 0.51, 104.87 5.32, 106.25 18.31 M87.94 0 C98.71 0.08, 105.76 6.17, 106.25 18.31 M106.25 18.31 C104.95 26.71, 105.52 34.88, 106.25 54.94 M106.25 18.31 C106.54 26.58, 106.57 36.76, 106.25 54.94 M106.25 54.94 C107.17 66.12, 98.72 74.96, 87.94 73.25 M106.25 54.94 C105.02 67.53, 99.75 71.37, 87.94 73.25 M87.94 73.25 C73.11 75.56, 57.56 75.06, 18.31 73.25 M87.94 73.25 C65.89 73.62, 41.68 73.77, 18.31 73.25 M18.31 73.25 C4.83 72.34, 1.49 67.62, 0 54.94 M18.31 73.25 C5.75 74.2, 1.76 66.35, 0 54.94 M0 54.94 C-1.72 39.81, -1.22 24.85, 0 18.31 M0 54.94 C0.1 40.73, 0.38 27.63, 0 18.31 M0 18.31 C-1.46 6.97, 5.49 0.12, 18.31 0 M0 18.31 C0.85 5.1, 4.06 2.11, 18.31 0" stroke="#1e1e1e" stroke-width="2" fill="none"></path></g><g transform="translate(955.4324906410254 1330.5574958461466) rotate(0 38.537498474121094 12.5)"><text x="38.537498474121094" y="17.52" font-family="Virgil, Segoe UI Emoji" font-size="20px" fill="#1e1e1e" text-anchor="middle" style="white-space: pre;" direction="ltr" dominant-baseline="alphabetic">Browser</text></g><g stroke-linecap="round" transform="translate(942.5116557818133 1081.4324958461466) rotate(0 53.125 36.625)"><path d="M18.31 0 C37.76 2.05, 55.4 -0.32, 87.94 0 M18.31 0 C33.74 -1.1, 46.72 0.04, 87.94 0 M87.94 0 C98.8 1.37, 105.22 7.89, 106.25 18.31 M87.94 0 C100.73 -1.48, 107.39 6.53, 106.25 18.31 M106.25 18.31 C104.63 33.75, 105.46 44.39, 106.25 54.94 M106.25 18.31 C105.9 30.4, 106.36 44.21, 106.25 54.94 M106.25 54.94 C105.98 69, 99.58 71.28, 87.94 73.25 M106.25 54.94 C107.61 66.14, 98.52 71.24, 87.94 73.25 M87.94 73.25 C67.85 74.16, 45.49 73.6, 18.31 73.25 M87.94 73.25 C66.56 72.45, 44.12 73.65, 18.31 73.25 M18.31 73.25 C5.8 72.72, -1.07 66.56, 0 54.94 M18.31 73.25 C7.81 72.3, -2.29 69.01, 0 54.94 M0 54.94 C0.96 41.65, 1.32 30.14, 0 18.31 M0 54.94 C-1.02 44.55, 0.35 35.16, 0 18.31 M0 18.31 C-0.77 4.94, 7.2 1.91, 18.31 0 M0 18.31 C0.48 5.84, 8.4 2.26, 18.31 0" stroke="#1e1e1e" stroke-width="2" fill="none"></path></g><g transform="translate(957.0991573076922 1105.5574958461466) rotate(0 38.537498474121094 12.5)"><text x="38.537498474121094" y="17.52" font-family="Virgil, Segoe UI Emoji" font-size="20px" fill="#1e1e1e" text-anchor="middle" style="white-space: pre;" direction="ltr" dominant-baseline="alphabetic">Browser</text></g><g stroke-linecap="round" transform="translate(940.8449891151467 974.76582917948) rotate(0 53.125 36.625)"><path d="M18.31 0 C33.79 -4.36, 56.51 0.24, 87.94 0 C99.73 1.21, 108.87 8.76, 106.25 18.31 C106.64 30.75, 104.55 42.45, 106.25 54.94 C108.31 66.52, 102.55 72.13, 87.94 73.25 C68.23 74.27, 56.04 75.16, 18.31 73.25 C3.59 74.37, 0.93 70.75, 0 54.94 C2.61 44.25, -2.66 29.04, 0 18.31 C-1.56 6.38, 7.04 3.37, 18.31 0" stroke="none" stroke-width="0" fill="#a5d8ff"></path><path d="M18.31 0 C36.68 1, 52.22 1.41, 87.94 0 M18.31 0 C39.61 -0.6, 62.07 -0.68, 87.94 0 M87.94 0 C101.6 0.18, 104.44 5.62, 106.25 18.31 M87.94 0 C99.55 -1.14, 108.32 7.59, 106.25 18.31 M106.25 18.31 C106.37 33.33, 106.56 46.04, 106.25 54.94 M106.25 18.31 C105.5 27.32, 106.61 34.21, 106.25 54.94 M106.25 54.94 C106.05 66.28, 98.16 73.3, 87.94 73.25 M106.25 54.94 C103.96 67.34, 99.04 71.15, 87.94 73.25 M87.94 73.25 C67.49 74.11, 48 71.16, 18.31 73.25 M87.94 73.25 C74.19 72.31, 59.01 72.33, 18.31 73.25 M18.31 73.25 C7.05 73.93, -0.6 67.4, 0 54.94 M18.31 73.25 C7.22 72.01, 0.9 67.49, 0 54.94 M0 54.94 C-1.49 43.11, -0.2 30.3, 0 18.31 M0 54.94 C-0.08 43.9, -1.14 32.4, 0 18.31 M0 18.31 C1.94 5.76, 4.38 0.4, 18.31 0 M0 18.31 C-0.56 4.51, 8.17 -0.34, 18.31 0" stroke="#1e1e1e" stroke-width="2" fill="none"></path></g><g transform="translate(955.4324906410257 998.89082917948) rotate(0 38.537498474121094 12.5)"><text x="38.537498474121094" y="17.52" font-family="Virgil, Segoe UI Emoji" font-size="20px" fill="#1e1e1e" text-anchor="middle" style="white-space: pre;" direction="ltr" dominant-baseline="alphabetic">Browser</text></g><g stroke-linecap="round"><g transform="translate(1050.222720836589 1117.4611576897678) rotate(0 42.100562510905206 -15.068977482689434)"><path d="M0.09 0.28 C14.48 -4.37, 71.08 -23.83, 85.52 -28.8 M-1.32 -0.61 C12.96 -5.52, 69.84 -25.85, 84.49 -30.42" stroke="#1e1e1e" stroke-width="2" fill="none"></path></g><g transform="translate(1050.222720836589 1117.4611576897678) rotate(0 42.100562510905206 -15.068977482689434)"><path d="M64.97 -14.81 C70.11 -18.73, 75.76 -20.31, 84.49 -30.42 M64.97 -14.81 C72.25 -19.37, 77.28 -25.81, 84.49 -30.42" stroke="#1e1e1e" stroke-width="2" fill="none"></path></g><g transform="translate(1050.222720836589 1117.4611576897678) rotate(0 42.100562510905206 -15.068977482689434)"><path d="M59.5 -31.01 C65.8 -31.16, 72.73 -28.96, 84.49 -30.42 M59.5 -31.01 C68.48 -30.43, 75.26 -31.68, 84.49 -30.42" stroke="#1e1e1e" stroke-width="2" fill="none"></path></g></g><mask></mask><g stroke-linecap="round"><g transform="translate(1045.2227208365887 1349.2314466568628) rotate(0 51.93070876559216 17.08653037969316)"><path d="M0.95 -0.34 C18.23 5.5, 86.74 28.4, 103.88 34.29 M-0.02 -1.57 C17.07 4.54, 85.63 29.99, 102.76 35.74" stroke="#1e1e1e" stroke-width="2" fill="none"></path></g><g transform="translate(1045.2227208365887 1349.2314466568628) rotate(0 51.93070876559216 17.08653037969316)"><path d="M77.76 35.92 C84.99 35.12, 93.1 34.87, 102.76 35.74 M77.76 35.92 C86.96 36.44, 94.67 35.48, 102.76 35.74" stroke="#1e1e1e" stroke-width="2" fill="none"></path></g><g transform="translate(1045.2227208365887 1349.2314466568628) rotate(0 51.93070876559216 17.08653037969316)"><path d="M83.49 19.81 C88.83 24.08, 95.15 28.86, 102.76 35.74 M83.49 19.81 C90.79 25.87, 96.5 30.5, 102.76 35.74" stroke="#1e1e1e" stroke-width="2" fill="none"></path></g></g><mask></mask><g stroke-linecap="round" transform="translate(1150.4283224484798 1334.3491625128127) rotate(0 50.83333333333326 53.29166666666674)"><path d="M25.42 0 C38.98 -0.25, 57.14 -1.29, 76.25 0 M25.42 0 C39 -0.55, 55.18 -1.28, 76.25 0 M76.25 0 C93.58 0.94, 101.28 6.48, 101.67 25.42 M76.25 0 C93.05 -0.28, 99.44 7.34, 101.67 25.42 M101.67 25.42 C100.22 40.36, 101.12 55.88, 101.67 81.17 M101.67 25.42 C101.36 40.21, 102.31 57.62, 101.67 81.17 M101.67 81.17 C100.13 97.67, 91.79 105.2, 76.25 106.58 M101.67 81.17 C103.26 98.92, 94.26 108.51, 76.25 106.58 M76.25 106.58 C57.49 106, 35.94 108.04, 25.42 106.58 M76.25 106.58 C58.51 105.24, 37.89 106.6, 25.42 106.58 M25.42 106.58 C8.18 107.9, 0.17 97.28, 0 81.17 M25.42 106.58 C6.35 108.01, 2.07 97.57, 0 81.17 M0 81.17 C-1.03 65.08, 1.5 45.74, 0 25.42 M0 81.17 C-0.73 68.26, -0.58 53.15, 0 25.42 M0 25.42 C1.55 9.4, 7.82 -0.51, 25.42 0 M0 25.42 C0.45 6.97, 8.16 -0.25, 25.42 0" stroke="#1e1e1e" stroke-width="2" fill="none"></path></g><g transform="translate(1187.949155781813 1375.1408291794796) rotate(0 13.3125 12.5)"><text x="13.3125" y="17.52" font-family="Virgil, Segoe UI Emoji" font-size="20px" fill="#1e1e1e" text-anchor="middle" style="white-space: pre;" direction="ltr" dominant-baseline="alphabetic">LB</text></g><g stroke-linecap="round" transform="translate(1138.7616557818135 994.3491625128132) rotate(0 61.66666666666663 79.95833333333337)"><path d="M30.83 0 C52.14 0.22, 74.13 -2.32, 92.5 0 M30.83 0 C55.46 -0.93, 78.49 -0.3, 92.5 0 M92.5 0 C115.04 1.91, 124.54 9.69, 123.33 30.83 M92.5 0 C114.18 0.79, 121.57 8.96, 123.33 30.83 M123.33 30.83 C126.08 52.46, 123.13 75.45, 123.33 129.08 M123.33 30.83 C124.86 67.43, 123.02 104.82, 123.33 129.08 M123.33 129.08 C122.1 148.42, 112.12 159.63, 92.5 159.92 M123.33 129.08 C125.03 148.53, 111.86 160.21, 92.5 159.92 M92.5 159.92 C76.06 160, 59.98 159.59, 30.83 159.92 M92.5 159.92 C77.13 160.29, 59.03 161.2, 30.83 159.92 M30.83 159.92 C11.61 158.21, 1.61 149.69, 0 129.08 M30.83 159.92 C9.9 158.51, 1.29 151.38, 0 129.08 M0 129.08 C0.11 94.36, -1.92 61.31, 0 30.83 M0 129.08 C-0.73 99.16, 0.24 68.88, 0 30.83 M0 30.83 C1.44 9.8, 10.09 0.99, 30.83 0 M0 30.83 C-0.75 8.38, 9.36 -0.81, 30.83 0" stroke="#1e1e1e" stroke-width="2" fill="none"></path></g><g transform="translate(1187.11582244848 1061.8074958461464) rotate(0 13.3125 12.5)"><text x="13.3125" y="17.52" font-family="Virgil, Segoe UI Emoji" font-size="20px" fill="#1e1e1e" text-anchor="middle" style="white-space: pre;" direction="ltr" dominant-baseline="alphabetic">LB</text></g><g stroke-linecap="round"><g transform="translate(1050.2227208365887 1009.1499790544377) rotate(0 43.52767490657823 28.77781820641121)"><path d="M0.69 -0.21 C15.39 9.39, 73.24 48.05, 87.47 57.58 M-0.41 -1.36 C14.26 8.41, 72.71 49.07, 86.94 58.92" stroke="#1e1e1e" stroke-width="2" fill="none"></path></g><g transform="translate(1050.2227208365887 1009.1499790544377) rotate(0 43.52767490657823 28.77781820641121)"><path d="M62.76 52.55 C68.19 55.27, 73.69 54.41, 86.94 58.92 M62.76 52.55 C68.11 54.82, 73.56 54.76, 86.94 58.92" stroke="#1e1e1e" stroke-width="2" fill="none"></path></g><g transform="translate(1050.2227208365887 1009.1499790544377) rotate(0 43.52767490657823 28.77781820641121)"><path d="M72.51 38.5 C75.61 44.63, 78.77 47.13, 86.94 58.92 M72.51 38.5 C75.83 43.73, 79.18 46.69, 86.94 58.92" stroke="#1e1e1e" stroke-width="2" fill="none"></path></g></g><mask></mask><g stroke-linecap="round"><g transform="translate(1265.222720836589 1025.0706107262872) rotate(0 239.215043058246 -11.610200205606816)"><path d="M-1.01 0.73 C78.98 -2.89, 399.46 -18.04, 479.44 -22.02 M0.66 0.07 C80.49 -3.89, 398.11 -20.25, 478.2 -23.95" stroke="#1e1e1e" stroke-width="2" fill="none"></path></g><g transform="translate(1265.222720836589 1025.0706107262872) rotate(0 239.215043058246 -11.610200205606816)"><path d="M455.16 -14.26 C462.29 -17.47, 467.54 -20.82, 478.2 -23.95 M455.16 -14.26 C460.73 -16.47, 466.95 -19.32, 478.2 -23.95" stroke="#1e1e1e" stroke-width="2" fill="none"></path></g><g transform="translate(1265.222720836589 1025.0706107262872) rotate(0 239.215043058246 -11.610200205606816)"><path d="M454.32 -31.34 C461.62 -30.18, 467.08 -29.17, 478.2 -23.95 M454.32 -31.34 C460.09 -29.47, 466.51 -28.24, 478.2 -23.95" stroke="#1e1e1e" stroke-width="2" fill="none"></path></g></g><mask></mask><g stroke-linecap="round"><g transform="translate(1261.4283224484805 1232.996217241808) rotate(0 53.1821866979933 -28.01711418751472)"><path d="M0.44 0.1 C17.94 -9.19, 87.52 -46.77, 105.02 -56.13 M-0.79 -0.9 C17.06 -9.98, 89.63 -45.79, 107.16 -54.79" stroke="#1e1e1e" stroke-width="2" fill="none"></path></g><g transform="translate(1261.4283224484805 1232.996217241808) rotate(0 53.1821866979933 -28.01711418751472)"><path d="M90 -36.61 C95.4 -44, 99.8 -48.73, 107.16 -54.79 M90 -36.61 C95.59 -41.78, 99.82 -46.95, 107.16 -54.79" stroke="#1e1e1e" stroke-width="2" fill="none"></path></g><g transform="translate(1261.4283224484805 1232.996217241808) rotate(0 53.1821866979933 -28.01711418751472)"><path d="M82.32 -51.89 C90 -54.7, 96.71 -54.81, 107.16 -54.79 M82.32 -51.89 C90.13 -52.84, 96.48 -53.8, 107.16 -54.79" stroke="#1e1e1e" stroke-width="2" fill="none"></path></g></g><mask></mask><g stroke-linecap="round" transform="translate(1368.556054169922 1133.5171609425772) rotate(0 154.16666666666674 36.66666666666663)"><path d="M18.33 0 C119.64 -1.25, 223.72 0.31, 290 0 M18.33 0 C108.28 -0.66, 196.1 -0.84, 290 0 M290 0 C304.02 -1.42, 306.49 5.07, 308.33 18.33 M290 0 C301.99 1.75, 306.38 5.55, 308.33 18.33 M308.33 18.33 C307.84 30.74, 306.87 39.37, 308.33 55 M308.33 18.33 C307.53 28.38, 308.88 39.33, 308.33 55 M308.33 55 C306.95 65.55, 301.72 72.39, 290 73.33 M308.33 55 C306.84 67.96, 302.9 75.27, 290 73.33 M290 73.33 C220.15 74.57, 152.08 74.97, 18.33 73.33 M290 73.33 C201.09 72.96, 113.31 72.65, 18.33 73.33 M18.33 73.33 C5.09 73.05, 0.46 66.78, 0 55 M18.33 73.33 C4.25 73.17, -1.39 69.25, 0 55 M0 55 C1.05 44.72, 1.53 33.4, 0 18.33 M0 55 C0.03 40.91, 0.95 26.98, 0 18.33 M0 18.33 C0.38 5.75, 4.83 1.81, 18.33 0 M0 18.33 C-1.89 7.73, 5.96 -0.91, 18.33 0" stroke="#1e1e1e" stroke-width="2" fill="none"></path></g><g transform="translate(1528.3893875032554 1157.683827609244) rotate(0 71.75 12.5)"><text x="143.5" y="17.52" font-family="Virgil, Segoe UI Emoji" font-size="20px" fill="#1e1e1e" text-anchor="end" style="white-space: pre;" direction="ltr" dominant-baseline="alphabetic">Kafka broker 1</text></g><g stroke-linecap="round" transform="translate(1375.2227208365885 1232.5647799901963) rotate(0 154.16666666666674 36.66666666666663)"><path d="M18.33 0 C116.39 0.03, 216.62 0.15, 290 0 M18.33 0 C119.66 0.69, 219.44 1, 290 0 M290 0 C303.8 1.73, 307.49 5.47, 308.33 18.33 M290 0 C300.55 0.97, 307.38 4, 308.33 18.33 M308.33 18.33 C309.1 29.88, 309.87 39.56, 308.33 55 M308.33 18.33 C307.38 31.09, 308.51 45.07, 308.33 55 M308.33 55 C307.83 67.31, 301.14 74.33, 290 73.33 M308.33 55 C309.24 69.13, 304.05 72.43, 290 73.33 M290 73.33 C207.47 73.81, 126.14 74.11, 18.33 73.33 M290 73.33 C227.07 74.93, 164.79 73.9, 18.33 73.33 M18.33 73.33 C5.67 73.42, -1.58 66.32, 0 55 M18.33 73.33 C6.38 73.32, -0.71 65.11, 0 55 M0 55 C-1.2 46.75, 0.75 37.41, 0 18.33 M0 55 C-0.72 45.48, -0.01 35.34, 0 18.33 M0 18.33 C-0.57 6.39, 7.9 -1.54, 18.33 0 M0 18.33 C1.22 5.24, 4.32 1.63, 18.33 0" stroke="#1e1e1e" stroke-width="2" fill="none"></path></g><g transform="translate(1526.2060480664063 1256.7314466568628) rotate(0 76.17500305175781 12.5)"><text x="152.35000610351562" y="17.52" font-family="Virgil, Segoe UI Emoji" font-size="20px" fill="#1e1e1e" text-anchor="end" style="white-space: pre;" direction="ltr" dominant-baseline="alphabetic">Kafka broker 2</text></g><g stroke-linecap="round" transform="translate(1376.889387503255 1332.5647799901963) rotate(0 154.16666666666674 36.66666666666663)"><path d="M18.33 0 C102.61 -1.1, 190.17 -0.25, 290 0 M18.33 0 C80.28 -1.57, 140.79 -1.47, 290 0 M290 0 C300.71 -1.18, 306.34 7.61, 308.33 18.33 M290 0 C304 -1.11, 306.26 5.01, 308.33 18.33 M308.33 18.33 C308.23 26.81, 309.67 38.44, 308.33 55 M308.33 18.33 C307.96 27.23, 307.91 34.66, 308.33 55 M308.33 55 C307.66 65.42, 303.21 72.67, 290 73.33 M308.33 55 C308.76 65.63, 304.23 74.11, 290 73.33 M290 73.33 C235.29 72.72, 181.14 71.73, 18.33 73.33 M290 73.33 C233.33 75.16, 177.27 75.93, 18.33 73.33 M18.33 73.33 C4.6 72.78, 0.41 67.39, 0 55 M18.33 73.33 C7.25 72.36, 0.61 66.3, 0 55 M0 55 C-1.76 46.67, -2.05 39.96, 0 18.33 M0 55 C0.15 42.88, -0.56 31.01, 0 18.33 M0 18.33 C0.97 4.84, 6.98 -0.74, 18.33 0 M0 18.33 C1.36 5.43, 5.15 1.41, 18.33 0" stroke="#1e1e1e" stroke-width="2" fill="none"></path></g><g transform="translate(1528.4977147330728 1356.7314466568628) rotate(0 75.86250305175781 12.5)"><text x="151.72500610351562" y="17.52" font-family="Virgil, Segoe UI Emoji" font-size="20px" fill="#1e1e1e" text-anchor="end" style="white-space: pre;" direction="ltr" dominant-baseline="alphabetic">Kafka broker 3</text></g><g stroke-linecap="round"><g transform="translate(1265.222720836589 1083.9877115210654) rotate(0 50.38487884626113 31.584517160906444)"><path d="M0.15 1.15 C16.86 11.15, 83.2 50.87, 99.77 60.89 M-1.24 0.7 C15.9 10.84, 84.83 52.72, 102.01 62.47" stroke="#1e1e1e" stroke-width="2" fill="none"></path></g><g transform="translate(1265.222720836589 1083.9877115210654) rotate(0 50.38487884626113 31.584517160906444)"><path d="M77.43 57.89 C85.7 57.54, 90.25 58.33, 102.01 62.47 M77.43 57.89 C86.69 59.57, 94.32 61.34, 102.01 62.47" stroke="#1e1e1e" stroke-width="2" fill="none"></path></g><g transform="translate(1265.222720836589 1083.9877115210654) rotate(0 50.38487884626113 31.584517160906444)"><path d="M86.12 43.16 C92.25 46.61, 94.58 51.2, 102.01 62.47 M86.12 43.16 C92.41 49.85, 97.1 56.61, 102.01 62.47" stroke="#1e1e1e" stroke-width="2" fill="none"></path></g></g><mask></mask><g stroke-linecap="round"><g transform="translate(1253.556054169922 1366.2810504382337) rotate(0 56.62231913276469 4.646225193703344)"><path d="M-0.21 1.03 C18.99 2.47, 95.86 7.49, 115.03 8.77 M-1.78 0.52 C17.3 1.62, 94.93 6.03, 114.25 7.08" stroke="#1e1e1e" stroke-width="2" fill="none"></path></g><g transform="translate(1253.556054169922 1366.2810504382337) rotate(0 56.62231913276469 4.646225193703344)"><path d="M90.32 14.31 C98.84 12.82, 105.32 10.4, 114.25 7.08 M90.32 14.31 C99.79 11.83, 107.59 9.59, 114.25 7.08" stroke="#1e1e1e" stroke-width="2" fill="none"></path></g><g transform="translate(1253.556054169922 1366.2810504382337) rotate(0 56.62231913276469 4.646225193703344)"><path d="M91.27 -2.77 C99.54 0.61, 105.74 3.06, 114.25 7.08 M91.27 -2.77 C100.43 0.97, 107.89 4.96, 114.25 7.08" stroke="#1e1e1e" stroke-width="2" fill="none"></path></g></g><mask></mask><g stroke-linecap="round" transform="translate(1401.8893875032552 1142.5647799901958) rotate(0 45.000000000000114 128.33333333333337)"><path d="M22.5 0 C40.51 -1.12, 52.29 -3.29, 67.5 0 C80.07 1.63, 88.14 8.39, 90 22.5 C88.53 65.71, 89.01 113.32, 90 234.17 C89.73 251.66, 81.77 257.94, 67.5 256.67 C52.69 256.41, 35.33 259.5, 22.5 256.67 C6.51 254.83, -1.34 249.69, 0 234.17 C-2.08 170.77, -2.11 110.61, 0 22.5 C0.2 9.45, 8.64 0, 22.5 0" stroke="none" stroke-width="0" fill="#ffec99"></path><path d="M22.5 0 C35.63 0.12, 51.22 0.14, 67.5 0 M22.5 0 C38.23 -0.61, 53.29 -0.94, 67.5 0 M67.5 0 C84.15 1.25, 91.29 7.83, 90 22.5 M67.5 0 C82.54 -0.57, 90.46 5.54, 90 22.5 M90 22.5 C90.11 101.24, 89.4 176.77, 90 234.17 M90 22.5 C88.09 95.73, 89.25 170.28, 90 234.17 M90 234.17 C90.65 248.26, 81.19 254.89, 67.5 256.67 M90 234.17 C89.83 247.87, 82.44 258.33, 67.5 256.67 M67.5 256.67 C49.86 256.85, 33.31 257.11, 22.5 256.67 M67.5 256.67 C57.06 257.3, 47.28 256.43, 22.5 256.67 M22.5 256.67 C5.96 257.51, -0.69 250.86, 0 234.17 M22.5 256.67 C9.66 257.76, 0.19 250.34, 0 234.17 M0 234.17 C-1.05 152.49, -0.08 69.79, 0 22.5 M0 234.17 C0.36 175.91, 0.83 117.53, 0 22.5 M0 22.5 C-1.3 8.51, 6.93 1.24, 22.5 0 M0 22.5 C0.84 8.17, 7.07 0.71, 22.5 0" stroke="#1e1e1e" stroke-width="2" fill="none"></path></g><g stroke-linecap="round" transform="translate(1418.5560541699222 1149.2314466568628) rotate(0 25.000000000000114 9.166666666666629)"><path d="M4.58 0 C12.72 -2.15, 24.59 -1.61, 45.42 0 C51.36 2.59, 51.58 4.32, 50 4.58 C50.05 9.64, 49.58 11.83, 50 13.75 C47.84 20.16, 48.52 17.32, 45.42 18.33 C30.71 15.95, 18.92 20.08, 4.58 18.33 C4.54 17.17, 2.71 18.35, 0 13.75 C1.29 10.11, -0.62 9.75, 0 4.58 C2.68 1.09, 0.51 -1.78, 4.58 0" stroke="none" stroke-width="0" fill="#ffc9c9"></path><path d="M4.58 0 C20.39 0.03, 32.78 -1.75, 45.42 0 M4.58 0 C19.59 0.32, 35.49 -0.79, 45.42 0 M45.42 0 C47.15 -0.17, 49.51 3.41, 50 4.58 M45.42 0 C48.62 -2.2, 51.67 0.74, 50 4.58 M50 4.58 C50.66 8.64, 50.21 11.23, 50 13.75 M50 4.58 C50.04 7.77, 50.05 10.32, 50 13.75 M50 13.75 C48.02 18.5, 49.15 16.64, 45.42 18.33 M50 13.75 C48.46 16.07, 50.24 18.24, 45.42 18.33 M45.42 18.33 C35.55 18.05, 20.96 16.17, 4.58 18.33 M45.42 18.33 C35.53 19.04, 26.57 18.81, 4.58 18.33 M4.58 18.33 C2.24 18.47, 0.55 15.77, 0 13.75 M4.58 18.33 C1.52 16.91, -1.88 16.37, 0 13.75 M0 13.75 C0.03 11.32, -0.65 8.46, 0 4.58 M0 13.75 C-0.05 11.21, -0.21 8.66, 0 4.58 M0 4.58 C0.81 -0.46, 0.49 -0.71, 4.58 0 M0 4.58 C-2.23 3.72, 1.93 -0.15, 4.58 0" stroke="#e03131" stroke-width="2" fill="none"></path></g><g stroke-linecap="round" transform="translate(1418.5560541699222 1239.2314466568628) rotate(0 25.000000000000114 9.166666666666629)"><path d="M4.58 0 C16.22 0.32, 27.31 -0.66, 45.42 0 C47.11 -2.18, 48.2 1.39, 50 4.58 C48.36 5.61, 49.43 9.24, 50 13.75 C48.34 15.43, 45.62 20.52, 45.42 18.33 C33.07 16.05, 22.24 19.55, 4.58 18.33 C3.55 17.19, 0.08 18.48, 0 13.75 C0.05 12.38, 1.37 9.73, 0 4.58 C3.16 1.78, 4.94 -2.11, 4.58 0" stroke="none" stroke-width="0" fill="#ffc9c9"></path><path d="M4.58 0 C16.09 -1.11, 23.95 0.36, 45.42 0 M4.58 0 C15.74 0.12, 26.06 0, 45.42 0 M45.42 0 C47.95 1.47, 48.42 2.5, 50 4.58 M45.42 0 C49.49 0.49, 48.93 2.39, 50 4.58 M50 4.58 C50.17 8.37, 50.24 10.44, 50 13.75 M50 4.58 C49.8 7.37, 50.49 9.42, 50 13.75 M50 13.75 C50.81 15.4, 48.98 19.64, 45.42 18.33 M50 13.75 C50.16 17.59, 49.39 19.39, 45.42 18.33 M45.42 18.33 C28.41 17.59, 14.55 17.15, 4.58 18.33 M45.42 18.33 C36.36 18.84, 25.07 19.2, 4.58 18.33 M4.58 18.33 C-0.21 18.07, -1.26 15.07, 0 13.75 M4.58 18.33 C-0.74 18.05, -1.13 17.74, 0 13.75 M0 13.75 C-0.67 10.48, 0.46 7.67, 0 4.58 M0 13.75 C-0.26 11.86, -0.12 9.35, 0 4.58 M0 4.58 C0.47 2.1, 2.61 -1.14, 4.58 0 M0 4.58 C-0.61 1.99, 2.91 -0.82, 4.58 0" stroke="#1e1e1e" stroke-width="2" fill="none"></path></g><g stroke-linecap="round" transform="translate(1413.556054169922 1260.8981133235293) rotate(0 31.666666666666856 8.333333333333371)"><path d="M4.17 0 C18.5 -1.76, 31.93 -2.72, 59.17 0 C64.57 -3.58, 62.8 4.03, 63.33 4.17 C64.51 5.81, 63.07 10.82, 63.33 12.5 C65.21 18.25, 59.87 16.45, 59.17 16.67 C40.09 15.82, 19.29 15.1, 4.17 16.67 C-0.59 13.31, -2 18.41, 0 12.5 C1.07 9.28, 0.28 6.5, 0 4.17 C3.5 0.61, 3.1 -1.45, 4.17 0" stroke="none" stroke-width="0" fill="#b2f2bb"></path><path d="M4.17 0 C21.88 1.91, 40.79 0.06, 59.17 0 M4.17 0 C16.98 -1.1, 28.84 -1.22, 59.17 0 M59.17 0 C61.55 0.96, 62 2.42, 63.33 4.17 M59.17 0 C61.02 0.64, 64.15 1.54, 63.33 4.17 M63.33 4.17 C62.77 6.22, 63.13 9.29, 63.33 12.5 M63.33 4.17 C63.32 6.32, 63.1 9.04, 63.33 12.5 M63.33 12.5 C61.93 17.18, 61.47 17.24, 59.17 16.67 M63.33 12.5 C61.98 16.51, 62.88 14.38, 59.17 16.67 M59.17 16.67 C47.44 16.48, 31.76 15.73, 4.17 16.67 M59.17 16.67 C41.78 15.37, 25.21 16.96, 4.17 16.67 M4.17 16.67 C2.83 17.54, 1.55 16.93, 0 12.5 M4.17 16.67 C0.31 18.36, 0.18 17.43, 0 12.5 M0 12.5 C0.76 10.18, -0.25 8.03, 0 4.17 M0 12.5 C-0.13 9.44, 0.34 6.77, 0 4.17 M0 4.17 C-0.65 2.89, 2.25 -0.65, 4.17 0 M0 4.17 C1.42 3.6, 3.33 -1.66, 4.17 0" stroke="#e03131" stroke-width="2" fill="none"></path></g><g stroke-linecap="round" transform="translate(1411.8893875032552 1169.2314466568623) rotate(0 31.666666666666856 8.333333333333371)"><path d="M4.17 0 C23.37 3.86, 40.46 -1.22, 59.17 0 C58.79 -1.31, 63.56 3.19, 63.33 4.17 C62.81 4.91, 64.18 9.4, 63.33 12.5 C61.58 12.16, 64.06 14.67, 59.17 16.67 C44.19 15.38, 22.01 13.47, 4.17 16.67 C2.89 13.66, 0.78 18.29, 0 12.5 C-0.58 9.82, 1.37 7.8, 0 4.17 C1.79 3.28, -1.6 2.55, 4.17 0" stroke="none" stroke-width="0" fill="#b2f2bb"></path><path d="M4.17 0 C17.84 -2.03, 35.28 -0.84, 59.17 0 M4.17 0 C17.03 0.26, 31.23 0.32, 59.17 0 M59.17 0 C62.67 -0.97, 62.84 -0.55, 63.33 4.17 M59.17 0 C60.25 -1.55, 65.08 2.27, 63.33 4.17 M63.33 4.17 C62.88 6.4, 63.42 9.51, 63.33 12.5 M63.33 4.17 C63.08 7.59, 63.1 10.4, 63.33 12.5 M63.33 12.5 C63.33 17.05, 61.1 17.26, 59.17 16.67 M63.33 12.5 C64.14 14.48, 63.97 18.13, 59.17 16.67 M59.17 16.67 C46.01 16.55, 34.74 15.86, 4.17 16.67 M59.17 16.67 C46.67 16.7, 32.21 16.33, 4.17 16.67 M4.17 16.67 C2.99 16.88, -1.63 16.77, 0 12.5 M4.17 16.67 C2.15 15.46, 0.11 15.58, 0 12.5 M0 12.5 C0.36 10.06, -0.36 8.47, 0 4.17 M0 12.5 C-0.23 10.27, 0.07 8.16, 0 4.17 M0 4.17 C1.89 1.92, -0.59 0.76, 4.17 0 M0 4.17 C0.13 2.61, 0.76 -1.99, 4.17 0" stroke="#e03131" stroke-width="2" fill="none"></path></g><g stroke-linecap="round" transform="translate(1413.5560541699217 1349.2314466568628) rotate(0 31.666666666666856 8.333333333333371)"><path d="M4.17 0 C24.29 3.19, 38 -0.3, 59.17 0 C63.67 -1.62, 61.71 -1.44, 63.33 4.17 C63.73 5.53, 63.06 9.75, 63.33 12.5 C62.77 16.09, 60.34 18.16, 59.17 16.67 C44.18 17.7, 36.17 15.5, 4.17 16.67 C0.13 14.44, -0.52 12.6, 0 12.5 C0.99 11.66, 0.45 8.68, 0 4.17 C1.65 0.98, -1.25 -3.57, 4.17 0" stroke="none" stroke-width="0" fill="#b2f2bb"></path><path d="M4.17 0 C17.22 -2.06, 29.69 -1.84, 59.17 0 M4.17 0 C18.37 -1.17, 32.82 -0.99, 59.17 0 M59.17 0 C62.21 -1.19, 62.29 0.37, 63.33 4.17 M59.17 0 C63.69 -0.49, 63.92 2.12, 63.33 4.17 M63.33 4.17 C62.73 6.59, 63.74 10.61, 63.33 12.5 M63.33 4.17 C63.47 6.44, 63.75 8.25, 63.33 12.5 M63.33 12.5 C63 15.01, 60.35 17.45, 59.17 16.67 M63.33 12.5 C61.34 17.31, 63.78 16.42, 59.17 16.67 M59.17 16.67 C44.14 15.53, 32.27 15.56, 4.17 16.67 M59.17 16.67 C41.65 15.73, 24.32 16.45, 4.17 16.67 M4.17 16.67 C0.17 14.98, 1.66 16.74, 0 12.5 M4.17 16.67 C1.42 16.58, -1.02 16.09, 0 12.5 M0 12.5 C0.65 9.71, -0.2 7.85, 0 4.17 M0 12.5 C0.25 10.62, -0.37 8.26, 0 4.17 M0 4.17 C0.41 1.47, 2.81 1.02, 4.17 0 M0 4.17 C2 -0.79, -0.22 1.32, 4.17 0" stroke="#1e1e1e" stroke-width="2" fill="none"></path></g><g stroke-linecap="round" transform="translate(1416.8893875032552 1367.5647799901963) rotate(0 30.8333333333336 10)"><path d="M5 0 C24.07 -2.94, 49.08 1.45, 56.67 0 C63.55 2.36, 58.93 4.38, 61.67 5 C61.76 8.2, 60.98 11.23, 61.67 15 C61.59 16.79, 62.36 21.06, 56.67 20 C39.97 16.72, 23.77 18.86, 5 20 C-1.02 19.47, -1.58 19.15, 0 15 C-0.56 12.01, -1.16 8.61, 0 5 C2.78 -1.15, 2.04 1.42, 5 0" stroke="none" stroke-width="0" fill="#a5d8ff"></path><path d="M5 0 C15.48 -1.25, 29.22 -2.14, 56.67 0 M5 0 C25.23 0.07, 45.5 -0.88, 56.67 0 M56.67 0 C58.66 -1.58, 60.62 3.27, 61.67 5 M56.67 0 C61.65 1.01, 63.45 3.57, 61.67 5 M61.67 5 C62.68 7.32, 61.88 9.46, 61.67 15 M61.67 5 C61.78 9.26, 61.25 12.65, 61.67 15 M61.67 15 C60.69 18.25, 61.32 21.68, 56.67 20 M61.67 15 C60.92 20.06, 60.99 19.25, 56.67 20 M56.67 20 C36.55 19.81, 20.41 21.93, 5 20 M56.67 20 C41.24 20.47, 25.92 19.6, 5 20 M5 20 C3.13 20.24, -1.36 17.62, 0 15 M5 20 C3.62 18.54, -0.25 20.56, 0 15 M0 15 C-0.14 12.41, -0.2 8.05, 0 5 M0 15 C-0.2 11.02, -0.44 7.31, 0 5 M0 5 C1.74 2.42, 0.69 -0.24, 5 0 M0 5 C1.53 1.05, 1.99 -0.57, 5 0" stroke="#e03131" stroke-width="2" fill="none"></path></g><g stroke-linecap="round"><g transform="translate(1755.222720836589 1025.8981133235293) rotate(0 -37.48370779330253 103.26679706399636)"><path d="M-0.32 -0.61 C-12.93 33.95, -63.44 172.49, -76.06 207.15 M1.71 1.68 C-10.96 35.9, -63.65 171.33, -76.68 205.27" stroke="#1e1e1e" stroke-width="2" fill="none"></path></g><g transform="translate(1755.222720836589 1025.8981133235293) rotate(0 -37.48370779330253 103.26679706399636)"><path d="M-76.19 180.28 C-77.39 187.96, -75.7 194.68, -76.68 205.27 M-76.19 180.28 C-77.18 189.35, -75.94 199.04, -76.68 205.27" stroke="#1e1e1e" stroke-width="2" fill="none"></path></g><g transform="translate(1755.222720836589 1025.8981133235293) rotate(0 -37.48370779330253 103.26679706399636)"><path d="M-60.24 186.44 C-65.68 192.44, -68.24 197.51, -76.68 205.27 M-60.24 186.44 C-66.92 193.36, -71.36 200.86, -76.68 205.27" stroke="#1e1e1e" stroke-width="2" fill="none"></path></g></g><mask></mask><g stroke-linecap="round"><g transform="translate(1770.222720836589 1029.2314466568628) rotate(0 -42.07682501961017 174.839478400168)"><path d="M1.09 -0.59 C-13.17 57.5, -70.04 290.63, -84.54 349.17 M0.2 1.71 C-14.27 59.89, -71.3 292.45, -85.24 350.27" stroke="#1e1e1e" stroke-width="2" fill="none"></path></g><g transform="translate(1770.222720836589 1029.2314466568628) rotate(0 -42.07682501961017 174.839478400168)"><path d="M-87.99 325.42 C-87.79 335.8, -87.12 343.18, -85.24 350.27 M-87.99 325.42 C-87.84 335.14, -85.74 342.66, -85.24 350.27" stroke="#1e1e1e" stroke-width="2" fill="none"></path></g><g transform="translate(1770.222720836589 1029.2314466568628) rotate(0 -42.07682501961017 174.839478400168)"><path d="M-71.38 329.47 C-77.63 338.43, -83.41 344.24, -85.24 350.27 M-71.38 329.47 C-77.08 337.59, -80.84 343.69, -85.24 350.27" stroke="#1e1e1e" stroke-width="2" fill="none"></path></g></g><mask></mask><g stroke-linecap="round" transform="translate(1411.8893875032552 1189.2314466568628) rotate(0 30.8333333333336 10)"><path d="M5 0 C14.48 -2.16, 30.34 -1.55, 56.67 0 C59.31 -0.18, 61.66 1.88, 61.67 5 C60.66 6.17, 60.19 10.48, 61.67 15 C61.57 16.25, 63.08 20.5, 56.67 20 C37.68 20.38, 24.01 19.61, 5 20 C0.59 20.64, -0.41 20.83, 0 15 C0.39 12.54, -1.39 11.95, 0 5 C2.14 4.41, -0.32 -3.38, 5 0" stroke="none" stroke-width="0" fill="#a5d8ff"></path><path d="M5 0 C16.4 -0.9, 28.28 -1.22, 56.67 0 M5 0 C18.56 0.7, 29.24 0.82, 56.67 0 M56.67 0 C60.11 1.06, 61.12 -0.06, 61.67 5 M56.67 0 C61.3 -0.17, 59.56 1.41, 61.67 5 M61.67 5 C60.71 8.46, 61.65 13.14, 61.67 15 M61.67 5 C61.51 6.96, 61.96 10.17, 61.67 15 M61.67 15 C60.69 16.6, 61.18 18.89, 56.67 20 M61.67 15 C62.53 18, 58.03 22.29, 56.67 20 M56.67 20 C42.63 17.99, 27.37 21.34, 5 20 M56.67 20 C42.64 19.3, 30.22 19.43, 5 20 M5 20 C2.66 21.05, -1.66 19.75, 0 15 M5 20 C2.28 18.17, 0.87 19.99, 0 15 M0 15 C0.71 10.68, -0.59 7.3, 0 5 M0 15 C0.13 12.52, -0.04 9.63, 0 5 M0 5 C-1.41 -0.02, 2.8 1.46, 5 0 M0 5 C0.76 1.51, 1.82 0.02, 5 0" stroke="#1e1e1e" stroke-width="2" fill="none"></path></g><g stroke-linecap="round" transform="translate(1410.2227208365885 1280.8981133235288) rotate(0 30.8333333333336 10)"><path d="M5 0 C23.76 2.07, 41.04 -1.75, 56.67 0 C57.82 -1.8, 61.52 0.24, 61.67 5 C60.06 7.37, 61.42 10.13, 61.67 15 C60.29 15.48, 62.19 20.35, 56.67 20 C35.02 22.2, 19.49 22.1, 5 20 C0.52 20.08, 1.67 17.3, 0 15 C1.19 13.51, 1.01 10.63, 0 5 C0.25 5.08, -0.44 -0.03, 5 0" stroke="none" stroke-width="0" fill="#a5d8ff"></path><path d="M5 0 C17.36 -1.48, 32.51 -0.97, 56.67 0 M5 0 C24.31 -0.49, 43.29 -0.38, 56.67 0 M56.67 0 C61.47 -1.58, 62.64 2.55, 61.67 5 M56.67 0 C60.49 -1.07, 62.53 2.14, 61.67 5 M61.67 5 C62.56 8.33, 61.62 10.94, 61.67 15 M61.67 5 C61.85 9.01, 61.31 12.25, 61.67 15 M61.67 15 C60.26 18.84, 61.3 20.14, 56.67 20 M61.67 15 C62.45 19.25, 61.06 21.7, 56.67 20 M56.67 20 C43.52 19.22, 30.45 18.33, 5 20 M56.67 20 C44.59 19.51, 32.46 19.49, 5 20 M5 20 C1.41 18.74, -1.74 16.36, 0 15 M5 20 C1.39 18.87, 0.93 19.6, 0 15 M0 15 C-0.02 13.37, 0.47 10.42, 0 5 M0 15 C0.48 12.24, 0.23 9.95, 0 5 M0 5 C0.57 2.75, 0.53 -0.53, 5 0 M0 5 C0.46 3.05, 0.85 -1.19, 5 0" stroke="#1e1e1e" stroke-width="2" fill="none"></path></g><g stroke-linecap="round" transform="translate(1420.2227208365887 1327.5647799901963) rotate(0 25.000000000000114 9.166666666666629)"><path d="M4.58 0 C16.11 -0.81, 29.17 2.5, 45.42 0 C46.66 -0.9, 50.38 0.4, 50 4.58 C51.35 5.97, 50.87 10.55, 50 13.75 C50.15 19.36, 50.31 21.46, 45.42 18.33 C37.39 17.77, 28.21 21.83, 4.58 18.33 C4.6 18.06, -0.42 18.53, 0 13.75 C-0.56 11.55, 0.94 9.49, 0 4.58 C-1.97 0.83, 4.47 -0.57, 4.58 0" stroke="none" stroke-width="0" fill="#ffc9c9"></path><path d="M4.58 0 C17.06 -0.08, 25.4 0.21, 45.42 0 M4.58 0 C20.8 0.12, 35.21 0.19, 45.42 0 M45.42 0 C49.82 -0.85, 48.09 3, 50 4.58 M45.42 0 C50.41 -1.71, 51.9 0.22, 50 4.58 M50 4.58 C49.29 8.01, 50.05 10.92, 50 13.75 M50 4.58 C49.84 6.71, 50.31 8.15, 50 13.75 M50 13.75 C48.39 16.36, 47.22 18.6, 45.42 18.33 M50 13.75 C48.63 15.61, 47.3 20.08, 45.42 18.33 M45.42 18.33 C35.33 20.3, 22.83 16.83, 4.58 18.33 M45.42 18.33 C35.63 19.06, 27.78 18.74, 4.58 18.33 M4.58 18.33 C2.62 20.13, -0.09 16.48, 0 13.75 M4.58 18.33 C1.22 16.5, 0.9 14.81, 0 13.75 M0 13.75 C-0.58 9.36, -0.54 5.91, 0 4.58 M0 13.75 C0.07 11.29, -0.37 8.95, 0 4.58 M0 4.58 C-0.98 1.12, 1.98 -1.22, 4.58 0 M0 4.58 C-1.94 3.44, 3.21 0.03, 4.58 0" stroke="#1e1e1e" stroke-width="2" fill="none"></path></g><g stroke-linecap="round"><g transform="translate(1663.556054169922 1219.2314466568623) rotate(0 -150.5663433525882 46.78816465997147)"><path d="M0.24 -0.24 C-49.91 15.62, -250.39 78.23, -300.85 93.98 M-1.09 -1.41 C-51.33 14.67, -251.53 78.88, -301.38 94.98" stroke="#e03131" stroke-width="2" fill="none"></path></g></g><mask></mask><g stroke-linecap="round"><g transform="translate(1370.2227208365885 1222.5647799901958) rotate(0 155.56111851309743 44.91841238960626)"><path d="M-0.54 -0.66 C51.2 14.61, 259.6 75.31, 311.67 90.5 M1.37 1.6 C52.86 16.62, 259.09 74.17, 310.72 88.64" stroke="#e03131" stroke-width="2" fill="none"></path></g></g><mask></mask><g stroke-linecap="round" transform="translate(1150.2227208365885 1187.5647799901958) rotate(0 30.000000000000114 12.499999999999886)"><path d="M6.25 0 C22.58 1.79, 35.01 0, 53.75 0 M6.25 0 C24.66 0.83, 42.45 -0.5, 53.75 0 M53.75 0 C57.42 -0.38, 61.67 2.16, 60 6.25 M53.75 0 C58.08 -1.39, 60.24 3.32, 60 6.25 M60 6.25 C60.87 10.73, 60.05 13.12, 60 18.75 M60 6.25 C60.59 9.56, 59.53 13.92, 60 18.75 M60 18.75 C61.62 21.71, 56.18 26.1, 53.75 25 M60 18.75 C58.44 22.75, 57.87 25.73, 53.75 25 M53.75 25 C42.75 25.09, 32.46 25.85, 6.25 25 M53.75 25 C36.73 25.54, 18.61 23.96, 6.25 25 M6.25 25 C2.54 25.83, 1.95 23.67, 0 18.75 M6.25 25 C-0.12 24.86, -1.32 24.31, 0 18.75 M0 18.75 C-0.01 14.34, -0.57 10.4, 0 6.25 M0 18.75 C-0.61 14.98, 0.51 11.56, 0 6.25 M0 6.25 C1.46 3.19, 2.57 -1.25, 6.25 0 M0 6.25 C-2.12 1.33, -0.06 0.47, 6.25 0" stroke="#1e1e1e" stroke-width="2" fill="none"></path></g><g stroke-linecap="round"><g transform="translate(2110.5592748294316 1290.857340720217) rotate(0 -93.40848686799632 14.704270502398685)"><path d="M-0.64 1.15 C-31.71 5.53, -156.35 22.92, -187.37 27.16 M1.22 0.71 C-29.87 5.21, -156.67 24.22, -188.04 28.7" stroke="#f08c00" stroke-width="2" fill="none"></path></g><g transform="translate(2110.5592748294316 1290.857340720217) rotate(0 -93.40848686799632 14.704270502398685)"><path d="M-166.03 16.83 C-168.83 20.19, -175.52 23.76, -188.04 28.7 M-166.03 16.83 C-171.58 19.88, -178.05 22.85, -188.04 28.7" stroke="#f08c00" stroke-width="2" fill="none"></path></g><g transform="translate(2110.5592748294316 1290.857340720217) rotate(0 -93.40848686799632 14.704270502398685)"><path d="M-163.55 33.75 C-167.01 33.41, -174.25 33.28, -188.04 28.7 M-163.55 33.75 C-169.75 32.56, -176.85 31.26, -188.04 28.7" stroke="#f08c00" stroke-width="2" fill="none"></path></g></g><mask></mask><g stroke-linecap="round"><g transform="translate(1799.5370126543908 1318.7364220056174) rotate(0 -160.30465406426856 -0.9714498126520539)"><path d="M0.92 0.36 C-52.49 -0.02, -266.81 -2.18, -320.56 -2.3 M-0.06 -0.5 C-53.61 -0.75, -268.33 -0.97, -321.53 -1.24" stroke="#f08c00" stroke-width="2" fill="none"></path></g><g transform="translate(1799.5370126543908 1318.7364220056174) rotate(0 -160.30465406426856 -0.9714498126520539)"><path d="M-298.01 -9.73 C-304.22 -7.17, -313.15 -6.39, -321.53 -1.24 M-298.01 -9.73 C-306.74 -7.06, -315.5 -2.7, -321.53 -1.24" stroke="#f08c00" stroke-width="2" fill="none"></path></g><g transform="translate(1799.5370126543908 1318.7364220056174) rotate(0 -160.30465406426856 -0.9714498126520539)"><path d="M-298.06 7.37 C-304.25 4.99, -313.16 0.82, -321.53 -1.24 M-298.06 7.37 C-306.67 3.46, -315.41 1.23, -321.53 -1.24" stroke="#f08c00" stroke-width="2" fill="none"></path></g></g><mask></mask><g stroke-linecap="round"><g transform="translate(1883.5763250631098 1285.2790657044816) rotate(0 34.12974829743712 -35.17798101823371)"><path d="M-0.9 -0.15 C10.15 -11.78, 55.6 -58.64, 67.02 -70.21 M0.83 -1.27 C12.18 -12.75, 58.2 -58.03, 69.16 -69.23" stroke="#f08c00" stroke-width="2" fill="none"></path></g><g transform="translate(1883.5763250631098 1285.2790657044816) rotate(0 34.12974829743712 -35.17798101823371)"><path d="M58.59 -46.57 C62.21 -56.42, 64.48 -63.56, 69.16 -69.23 M58.59 -46.57 C62.29 -52.26, 63.69 -58.77, 69.16 -69.23" stroke="#f08c00" stroke-width="2" fill="none"></path></g><g transform="translate(1883.5763250631098 1285.2790657044816) rotate(0 34.12974829743712 -35.17798101823371)"><path d="M46.5 -58.66 C54.41 -64.09, 61.01 -66.9, 69.16 -69.23 M46.5 -58.66 C53.35 -61.1, 57.97 -64.38, 69.16 -69.23" stroke="#f08c00" stroke-width="2" fill="none"></path></g></g><mask></mask><g stroke-linecap="round" transform="translate(2095.2512983686765 1432.6600180854339) rotate(0 65.71428571428578 38.57142857142867)"><path d="M19.29 0 C55.47 -1.32, 88.3 -1.37, 112.14 0 M19.29 0 C46.93 -0.4, 74.22 -1.11, 112.14 0 M112.14 0 C124.25 -0.14, 132.6 5.34, 131.43 19.29 M112.14 0 C126.29 1.55, 130.45 7.34, 131.43 19.29 M131.43 19.29 C129.44 32.8, 132.72 50.48, 131.43 57.86 M131.43 19.29 C132.55 32.94, 131.82 47.27, 131.43 57.86 M131.43 57.86 C129.97 69.83, 126.85 76.61, 112.14 77.14 M131.43 57.86 C132.94 72.13, 123.44 77.04, 112.14 77.14 M112.14 77.14 C83.75 77.58, 54.46 77.05, 19.29 77.14 M112.14 77.14 C75.08 77.02, 38.63 76.19, 19.29 77.14 M19.29 77.14 C5.54 75.33, 1.44 72.39, 0 57.86 M19.29 77.14 C6.15 77.21, -2.17 70.82, 0 57.86 M0 57.86 C-1.9 46.89, 1.05 39.3, 0 19.29 M0 57.86 C0.18 46.75, 0.08 33.91, 0 19.29 M0 19.29 C1.14 4.7, 7.96 0.39, 19.29 0 M0 19.29 C-1.9 8.12, 4.81 1.02, 19.29 0" stroke="#f08c00" stroke-width="2" fill="none"></path></g><g transform="translate(2148.0280840829623 1458.7314466568625) rotate(0 12.9375 12.5)"><text x="12.9375" y="17.52" font-family="Virgil, Segoe UI Emoji" font-size="20px" fill="#f08c00" text-anchor="middle" style="white-space: pre;" direction="ltr" dominant-baseline="alphabetic">S3</text></g></svg>